<?xml version="1.0" standalone="no"?>
<!DOCTYPE svg PUBLIC "-//W3C//DTD SVG 1.1//EN" "http://www.w3.org/Graphics/SVG/1.1/DTD/svg11.dtd" >
<svg>
<metadata>
Created by FontForge 20090914 at Fri Feb 26 10:48:28 2021
 By www-data
Copyright (c) 1989, 1995 Adobe Systems Incorporated.  All Rights Reserved.Avenir is a trademark of Linotype-Hell AG and/or its subsidiaries.
</metadata>
<defs>
<font id="Avenir-Book" horiz-adv-x="556" >
  <font-face 
    font-family="Avenir"
    font-weight="400"
    font-stretch="normal"
    units-per-em="1000"
    panose-1="2 0 5 3 4 0 0 2 0 3"
    ascent="800"
    descent="-200"
    x-height="467.999"
    cap-height="708"
    bbox="-167 -288.004 1000 920.002"
    underline-thickness="50"
    underline-position="-75"
    unicode-range="U+0001-U+2122"
  />
<missing-glyph horiz-adv-x="278" 
 />
    <glyph glyph-name=".notdef" horiz-adv-x="278" 
 />
    <glyph glyph-name="Eth" horiz-adv-x="741" 
d="M86 0l235 -0.00195312c44 0 88.167 7.33301 132.5 22s84.333 36.834 120 66.501s64.5 66.667 86.5 111s33 95.833 33 154.5c0 59.333 -11 111 -33 155s-50.833 80.833 -86.5 110.5s-75.667 51.834 -120 66.501s-88.5 22 -132.5 22h-235v-307h-73v-54h73v-347z
M158 346.998h258v54h-258v241h140c54 0 100.833 -8.16699 140.5 -24.5s72.667 -38 99 -65s45.833 -57.667 58.5 -92s19 -69.833 19 -106.5s-6.33301 -72.167 -19 -106.5s-32.167 -65 -58.5 -92s-59.333 -48.667 -99 -65s-86.5 -24.5 -140.5 -24.5h-140v281z" />
    <glyph glyph-name="eth" horiz-adv-x="593" 
d="M120 234c0 26 4.16699 50.333 12.5 73s20 42.334 35 59.001s33.5 29.834 55.5 39.501s46.333 14.5 73 14.5c27.333 0 51.833 -4.83301 73.5 -14.5s40.167 -22.834 55.5 -39.501s27.166 -36.334 35.499 -59.001s12.5 -47 12.5 -73s-4.16699 -50.333 -12.5 -73
s-20.166 -42.334 -35.499 -59.001s-33.833 -29.834 -55.5 -39.501s-46.167 -14.5 -73.5 -14.5c-26.667 0 -51 4.83301 -73 14.5s-40.5 22.834 -55.5 39.501s-26.667 36.334 -35 59.001s-12.5 47 -12.5 73zM455 714l-40.0039 35l-102 -53l-47 41.5l-50 41.5l-60 -37
c14.667 -10 29.834 -21.667 45.501 -35l49.5 -44l-108 -56l36 -36l110 57c15.333 -13.333 29.833 -26.833 43.5 -40.5s26.834 -28.5 39.501 -44.5s25.334 -33.667 38.001 -53s25.334 -41.333 38.001 -66l-2 -2c-24 20 -47.667 34.667 -71 44s-49.666 14 -78.999 14
c-36 0 -69.167 -6.16699 -99.5 -18.5s-56.5 -29.5 -78.5 -51.5s-39.167 -48 -51.5 -78s-18.5 -62.667 -18.5 -98s6.16699 -68 18.5 -98s29.5 -56 51.5 -78s48.167 -39.167 78.5 -51.5s63.5 -18.5 99.5 -18.5c48 0 88 8.16699 120 24.5s57.5 37.5 76.5 63.5
s32.5 54.667 40.5 86s12 62 12 92c0.666992 39.333 -3.33301 77 -12 113s-21.334 70.5 -38.001 103.5s-37 65.167 -61 96.5s-51.333 62.333 -82 93z" />
    <glyph glyph-name="Lslash" horiz-adv-x="500" 
d="M168 708h-72v-408l-82 -70v-70l82 70v-230h402v66h-330v226l216 186v70l-216 -186v346z" />
    <glyph glyph-name="lslash" horiz-adv-x="240" 
d="M153 756h-66v-367l-81 -82v-73l81 83v-317h66v386l81 83v73l-81 -84v298z" />
    <glyph glyph-name="Scaron" 
d="M494 640c-28 32 -58.335 54.332 -91.002 66.999s-69 19 -109 19c-28.667 0 -56.667 -4 -84 -12s-51.833 -20.333 -73.5 -37s-39 -37.667 -52 -63s-19.5 -55 -19.5 -89c0 -32.667 5.16699 -59.834 15.5 -81.501s24 -39.667 41 -54s36.333 -26.166 58 -35.499
s44 -17.666 67 -24.999l67 -22c21.667 -7.33301 41 -16.5 58 -27.5s30.667 -24.5 41 -40.5s15.5 -36.667 15.5 -62c0 -20.667 -4.66699 -39 -14 -55s-21.166 -29.5 -35.499 -40.5s-30.5 -19.333 -48.5 -25s-36 -8.5 -54 -8.5c-37.333 0 -69.666 7.83301 -96.999 23.5
s-48.666 36.5 -63.999 62.5l-65 -47c27.333 -37.333 60.5 -64.166 99.5 -80.499s80.167 -24.5 123.5 -24.5c28 0 55.833 4.66699 83.5 14s52.667 22.666 75 39.999s40.333 38.833 54 64.5s20.5 54.5 20.5 86.5c0 42.667 -9 76.334 -27 101.001s-40.333 44.5 -67 59.5
s-55.834 27 -87.501 36s-60.834 19.167 -87.501 30.5s-49 25.833 -67 43.5s-27 42.5 -27 74.5c0 22 4.33301 41.167 13 57.5s20.167 29.666 34.5 39.999s30.5 18 48.5 23s36.333 7.5 55 7.5c60.667 0 106.334 -23 137.001 -69zM426.998 882.999h-66l-83 -108l-83 108h-66
l109 -144h80z" />
    <glyph glyph-name="scaron" horiz-adv-x="426" 
d="M379 396c-15.333 30.667 -37.0029 52.3311 -65.0029 64.998s-58.333 19 -91 19c-22 0 -43.333 -2.83301 -64 -8.5s-39.167 -14.167 -55.5 -25.5s-29.333 -26 -39 -44s-14.5 -39 -14.5 -63c0 -22 4.83301 -40.5 14.5 -55.5s21 -27.167 34 -36.5s26.167 -16.333 39.5 -21
s24 -8 32 -10l64 -15c24.667 -6 45.667 -14.167 63 -24.5s26 -27.166 26 -50.499c0 -13.333 -3.16699 -25 -9.5 -35s-14.666 -18.167 -24.999 -24.5s-22.166 -11 -35.499 -14s-26.666 -4.5 -39.999 -4.5c-28 0 -52.167 6.33301 -72.5 19s-37.166 29.667 -50.499 51l-57 -39
c22 -33.333 48.5 -56.833 79.5 -70.5s64.5 -20.5 100.5 -20.5c22.667 0 45 2.66699 67 8s41.5 13.833 58.5 25.5s30.667 26.667 41 45s15.5 40.166 15.5 65.499c0 33.333 -10.833 61.166 -32.5 83.499s-48.834 37.166 -81.501 44.499l-67 16
c-30.667 7.33301 -53.667 16 -69 26s-23 26 -23 48c0 12.667 2.83301 23.334 8.5 32.001s13.167 15.834 22.5 21.501s19.833 9.83398 31.5 12.501s23.167 4 34.5 4c24 0 44.333 -5.66699 61 -17s30 -26.666 40 -45.999zM361.997 707.997h-66l-83 -108l-83 108h-66l109 -144
h80z" />
    <glyph glyph-name="Yacute" horiz-adv-x="574" 
d="M323 305l265 403h-90l-211 -334l-211 334h-90l265 -403v-305h72v305zM417 883h-91l-100 -144h59z" />
    <glyph glyph-name="yacute" horiz-adv-x="482" 
d="M99 468l-83.002 0.000976562l192 -474l-34 -90c-10 -26.667 -21.667 -47.334 -35 -62.001s-31.666 -22 -54.999 -22c-19.333 0 -36 3.66699 -50 11l-7 -64c10 -3.33301 20.167 -5.33301 30.5 -6s20.5 -1 30.5 -1c40.667 0 71.834 10.667 93.501 32s39.5 50 53.5 86
l234 590h-80l-143 -387zM370.998 708.001h-91l-100 -144h59z" />
    <glyph glyph-name="Thorn" horiz-adv-x="574" 
d="M96 0l72 -0.00195312v173h160c29.333 0 56.666 3.83301 81.999 11.5s47.333 19.5 66 35.5s33.167 35.833 43.5 59.5s15.5 51.5 15.5 83.5s-5.16699 59.833 -15.5 83.5s-24.833 43.334 -43.5 59.001s-40.667 27.334 -66 35.001s-52.666 11.5 -81.999 11.5h-160v156h-72
v-708zM168 485.998h116c19.333 0 39.166 -1 59.499 -3s38.833 -7.16699 55.5 -15.5s30.5 -20.666 41.5 -36.999s16.5 -38.833 16.5 -67.5s-5.5 -51.334 -16.5 -68.001s-24.833 -29.167 -41.5 -37.5s-35.167 -13.5 -55.5 -15.5s-40.166 -3 -59.499 -3h-116v247z" />
    <glyph glyph-name="thorn" horiz-adv-x="611" 
d="M72 -228l65.999 -0.00195312v306h2c10.667 -16 23.334 -29.667 38.001 -41s30 -20.666 46 -27.999s32.5 -12.666 49.5 -15.999s33.167 -5 48.5 -5c36.667 0 70.167 6.16699 100.5 18.5s56.5 29.5 78.5 51.5s39.167 48 51.5 78s18.5 62.667 18.5 98s-6.16699 68 -18.5 98
s-29.5 56 -51.5 78s-48.167 39.167 -78.5 51.5s-63.833 18.5 -100.5 18.5c-13.333 0 -27.5 -1.33301 -42.5 -4s-30.333 -7.66699 -46 -15s-31.5 -17.5 -47.5 -30.5s-31.333 -29.5 -46 -49.5h-2v375h-66v-984zM498.999 233.998c0 -26 -4.16699 -50.333 -12.5 -73
s-20.166 -42.334 -35.499 -59.001s-33.833 -29.834 -55.5 -39.501s-46.167 -14.5 -73.5 -14.5c-28.667 0 -54.5 4.83301 -77.5 14.5s-42.667 22.834 -59 39.501s-28.833 36.334 -37.5 59.001s-13 47 -13 73s4.66699 50.333 14 73s22.333 42.334 39 59.001
s36.5 29.834 59.5 39.501s47.833 14.5 74.5 14.5c27.333 0 51.833 -4.83301 73.5 -14.5s40.167 -22.834 55.5 -39.501s27.166 -36.334 35.499 -59.001s12.5 -47 12.5 -73z" />
    <glyph glyph-name="Zcaron" 
d="M527 708h-498v-66h408l-414 -582v-60h510v66h-419l413 582v60zM427 883h-66l-83 -108l-83 108h-66l109 -144h80z" />
    <glyph glyph-name="zcaron" horiz-adv-x="426" 
d="M393 468h-356v-60h260l-274 -360v-48h380v60h-284l274 360v48zM362 708h-66l-83 -108l-83 108h-66l109 -144h80z" />
    <glyph glyph-name="onehalf" horiz-adv-x="834" 
d="M180 -32l450 741l-51 31l-451 -740zM210 714h-54l-117 -89l29 -38l82 67v-365h60v425zM795 54h-226.996l130 117l34 32c11.333 10.667 21.333 22 30 34s15.667 25 21 39s8 29 8 45c0 18 -3.83301 34 -11.5 48s-17.834 25.5 -30.501 34.5s-27.334 15.833 -44.001 20.5
s-34.334 7 -53.001 7c-36 0 -66.833 -8.66699 -92.5 -26s-41.834 -42.333 -48.501 -75l56 -9c5.33301 15.333 15.833 28.5 31.5 39.5s34.5 16.5 56.5 16.5c9.33301 0 18.5 -1.5 27.5 -4.5s17 -7.33301 24 -13s12.833 -12.167 17.5 -19.5s7 -15 7 -23
c0 -19.333 -6.33301 -36.833 -19 -52.5s-25.667 -30.167 -39 -43.5l-171 -164v-57h293v54z" />
    <glyph glyph-name="onequarter" horiz-adv-x="834" 
d="M205 -32l450 741l-51 31l-451 -740zM235 714h-54l-117 -89l29 -38l82 67v-365h60v425zM710 425h-73l-179 -269v-62h192v-94h60v94h60v54h-60v277zM650 148h-138l136 217h2v-217z" />
    <glyph glyph-name="onesuperior" horiz-adv-x="361" 
d="M225 714h-54l-117 -89l29 -38l82 67v-365h60v425z" />
    <glyph glyph-name="threequarters" horiz-adv-x="834" 
d="M245 -32l450 741l-51 31l-451 -740zM139 483l28.998 0.00292969c22 0 40 -2.5 54 -7.5s25 -11.333 33 -19s13.5 -16 16.5 -25s4.5 -17.5 4.5 -25.5c0 -8.66699 -2.5 -17 -7.5 -25s-11.5 -15.333 -19.5 -22s-16.833 -12 -26.5 -16s-19.5 -6 -29.5 -6
c-28 0 -49.333 5.33301 -64 16s-26 26 -34 46l-51 -30c12.667 -30 31.5 -51.833 56.5 -65.5s54.5 -20.5 88.5 -20.5c20 0 38.833 2.66699 56.5 8s33.334 13.166 47.001 23.499s24.334 23.166 32.001 38.499s11.5 32.666 11.5 51.999c0 26 -8.16699 48.5 -24.5 67.5
s-39.833 31.167 -70.5 36.5v2c23.333 7.33301 42.833 19.833 58.5 37.5s23.5 38.167 23.5 61.5c0 17.333 -3.5 32.833 -10.5 46.5s-16.667 25.167 -29 34.5s-26.5 16.5 -42.5 21.5s-33 7.5 -51 7.5c-28 0 -52.667 -4.83301 -74 -14.5s-40.666 -27.167 -57.999 -52.5l47 -33
c13.333 18 26.166 30.167 38.499 36.5s28.166 9.5 47.499 9.5c20.667 0 37.834 -5.66699 51.501 -17s20.5 -25 20.5 -41c0 -24.667 -9.83301 -42.667 -29.5 -54s-43.167 -17 -70.5 -17h-24v-54zM729.998 425.003h-73l-179 -269v-62h192v-94h60v94h60v54h-60v277z
M669.998 148.003h-138l136 217h2v-217z" />
    <glyph glyph-name="threesuperior" horiz-adv-x="361" 
d="M130 483l28.998 0.00292969c22 0 40 -2.5 54 -7.5s25 -11.333 33 -19s13.5 -16 16.5 -25s4.5 -17.5 4.5 -25.5c0 -8.66699 -2.5 -17 -7.5 -25s-11.5 -15.333 -19.5 -22s-16.833 -12 -26.5 -16s-19.5 -6 -29.5 -6c-28 0 -49.333 5.33301 -64 16s-26 26 -34 46l-52 -30
c13.333 -30 32.5 -51.833 57.5 -65.5s54.5 -20.5 88.5 -20.5c20 0 38.833 2.66699 56.5 8s33.334 13.166 47.001 23.499s24.334 23.166 32.001 38.499s11.5 32.666 11.5 51.999c0 26 -8.16699 48.5 -24.5 67.5s-39.833 31.167 -70.5 36.5v2
c23.333 7.33301 42.833 19.833 58.5 37.5s23.5 38.167 23.5 61.5c0 17.333 -3.5 32.833 -10.5 46.5s-16.667 25.167 -29 34.5s-26.5 16.5 -42.5 21.5s-33 7.5 -51 7.5c-28 0 -52.667 -4.83301 -74 -14.5s-40.666 -27.167 -57.999 -52.5l47 -33
c13.333 18 26.166 30.167 38.499 36.5s28.166 9.5 47.499 9.5c20.667 0 37.834 -5.83301 51.501 -17.5s20.5 -26.5 20.5 -44.5c0 -22.667 -9.83301 -39.5 -29.5 -50.5s-43.167 -16.5 -70.5 -16.5h-24v-54z" />
    <glyph glyph-name="twosuperior" horiz-adv-x="361" 
d="M327 343h-226.996l130 117l34 32c11.333 10.667 21.333 22 30 34s15.667 25 21 39s8 29 8 45c0 18 -3.83301 34 -11.5 48s-17.834 25.5 -30.501 34.5s-27.334 15.833 -44.001 20.5s-34.334 7 -53.001 7c-36 0 -66.833 -8.66699 -92.5 -26s-41.834 -42.333 -48.501 -75
l56 -9c5.33301 15.333 15.833 28.5 31.5 39.5s34.5 16.5 56.5 16.5c9.33301 0 18.5 -1.5 27.5 -4.5s17 -7.33301 24 -13s12.833 -12.167 17.5 -19.5s7 -15 7 -23c0 -19.333 -6.33301 -36.833 -19 -52.5s-25.667 -30.167 -39 -43.5l-171 -164v-57h293v54z" />
    <glyph glyph-name="brokenbar" horiz-adv-x="222" 
d="M81 675v-350h60v350h-60zM81 175v-350h60v350h-60z" />
    <glyph glyph-name="minus" horiz-adv-x="666" 
d="M588 333h-510v-60h510v60z" />
    <glyph glyph-name="multiply" horiz-adv-x="666" 
d="M174 505l-42 -42l159 -160l-159 -159l42 -43l159 159l158 -159l43 43l-159 159l159 160l-43 42l-158 -159z" />
    <glyph glyph-name="space" unicode=" " horiz-adv-x="278" 
 />
    <glyph glyph-name="exclam" unicode="!" horiz-adv-x="278" 
d="M175 708h-72v-516h72v516zM193 48c0 14 -5 26.5 -15 37.5s-23 16.5 -39 16.5s-29 -5.5 -39 -16.5s-15 -23.5 -15 -37.5s5 -26.5 15 -37.5s23 -16.5 39 -16.5s29 5.5 39 16.5s15 23.5 15 37.5z" />
    <glyph glyph-name="quotedbl" unicode="&#x22;" horiz-adv-x="519" 
d="M157 473h60v235h-60v-235zM302 473h60v235h-60v-235z" />
    <glyph glyph-name="numbersign" unicode="#" 
d="M107 0h61l30 214h133l-30 -214h61l30 214h103v60h-95l22 162h99v60h-90l29 212h-61l-29 -212h-133l29 212h-61l-29 -212h-117v-60h108l-22 -162h-110v-60h102zM228 436h133l-22 -162h-133z" />
    <glyph glyph-name="dollar" unicode="$" 
d="M254 405c-16.667 6 -32.334 12.667 -47.001 20s-27.5 15.833 -38.5 25.5s-19.667 21 -26 34s-9.5 27.833 -9.5 44.5c0 17.333 3 33.5 9 48.5s14.333 28.167 25 39.5s23.334 20.5 38.001 27.5s31 11.167 49 12.5v-252zM302 314c38 -12 69.5 -29.167 94.5 -51.5
s37.167 -50.5 36.5 -84.5c0 -24.667 -4.5 -45.167 -13.5 -61.5s-20 -29.5 -33 -39.5s-27 -17 -42 -21s-29.167 -6 -42.5 -6v264zM254 49c-10.667 0 -22.3301 1.83594 -34.9971 5.50293s-25.834 9.16699 -39.501 16.5s-27 16.333 -40 27s-25.167 23 -36.5 37l-60 -43
c20 -28.667 48.5 -53.5 85.5 -74.5s78.833 -32.833 125.5 -35.5v-66h48v68c28.667 2 55.334 8 80.001 18s46.167 23.333 64.5 40s32.666 36.5 42.999 59.5s15.5 48.5 15.5 76.5c0 32.667 -6 60.5 -18 83.5s-27.667 42.667 -47 59s-41 30 -65 41s-48.333 20.833 -73 29.5v267
c24 0.666992 48 -4.5 72 -15.5s43 -28.167 57 -51.5l56 48c-9.33301 11.333 -19.833 22 -31.5 32s-24.834 19 -39.501 27s-31.334 14.333 -50.001 19s-40 7 -64 7v68h-48v-70c-24.667 -2 -48.5 -7.83301 -71.5 -17.5s-43.5 -22.834 -61.5 -39.501s-32.5 -36.5 -43.5 -59.5
s-16.5 -49.167 -16.5 -78.5c0 -30.667 5.83301 -56.834 17.5 -78.501s26.667 -40.334 45 -56.001s39 -28.5 62 -38.5s45.833 -18.667 68.5 -26v-279z" />
    <glyph glyph-name="percent" unicode="%" horiz-adv-x="833" 
d="M390 545c0 24.667 -4.5 47.667 -13.5 69s-21.5 39.833 -37.5 55.5s-34.667 28 -56 37s-44.333 13.5 -69 13.5s-47.667 -4.5 -69 -13.5s-40 -21.333 -56 -37s-28.5 -34.167 -37.5 -55.5s-13.5 -44.333 -13.5 -69s4.5 -47.667 13.5 -69s21.5 -39.833 37.5 -55.5
s34.667 -28 56 -37s44.333 -13.5 69 -13.5s47.667 4.5 69 13.5s40 21.333 56 37s28.5 34.167 37.5 55.5s13.5 44.333 13.5 69zM330 545c0 -16.667 -3.16699 -32 -9.5 -46s-14.666 -26.167 -24.999 -36.5s-22.5 -18.333 -36.5 -24s-29 -8.5 -45 -8.5s-31 2.83301 -45 8.5
s-26.167 13.667 -36.5 24s-18.666 22.5 -24.999 36.5s-9.5 29.333 -9.5 46s3.16699 32 9.5 46s14.666 26.167 24.999 36.5s22.5 18.333 36.5 24s29 8.5 45 8.5s31 -2.83301 45 -8.5s26.167 -13.667 36.5 -24s18.666 -22.5 24.999 -36.5s9.5 -29.333 9.5 -46zM795 163
c0 24.667 -4.5 47.667 -13.5 69s-21.5 39.833 -37.5 55.5s-34.667 28 -56 37s-44.333 13.5 -69 13.5s-47.667 -4.5 -69 -13.5s-40 -21.333 -56 -37s-28.5 -34.167 -37.5 -55.5s-13.5 -44.333 -13.5 -69s4.5 -47.667 13.5 -69s21.5 -39.833 37.5 -55.5s34.667 -28 56 -37
s44.333 -13.5 69 -13.5s47.667 4.5 69 13.5s40 21.333 56 37s28.5 34.167 37.5 55.5s13.5 44.333 13.5 69zM735 163c0 -16.667 -3.16699 -32 -9.5 -46s-14.666 -26.167 -24.999 -36.5s-22.5 -18.333 -36.5 -24s-29 -8.5 -45 -8.5s-31 2.83301 -45 8.5
s-26.167 13.667 -36.5 24s-18.666 22.5 -24.999 36.5s-9.5 29.333 -9.5 46s3.16699 32 9.5 46s14.666 26.167 24.999 36.5s22.5 18.333 36.5 24s29 8.5 45 8.5s31 -2.83301 45 -8.5s26.167 -13.667 36.5 -24s18.666 -22.5 24.999 -36.5s9.5 -29.333 9.5 -46zM667 712l-51 27
l-451 -743l52 -27z" />
    <glyph glyph-name="ampersand" unicode="&#x26;" horiz-adv-x="704" 
d="M659 383l-80.999 0.00292969l-97 -168l-163 168c18 9.33301 36.333 19.833 55 31.5s35.5 25 50.5 40s27.167 31.667 36.5 50s14 39.166 14 62.499c0 26 -4.5 48.833 -13.5 68.5s-21.167 36.167 -36.5 49.5s-33.5 23.5 -54.5 30.5s-43.167 10.5 -66.5 10.5
c-24.667 0 -47.834 -3.66699 -69.501 -11s-40.5 -18.166 -56.5 -32.499s-28.5 -31.833 -37.5 -52.5s-13.5 -44.334 -13.5 -71.001c0 -32.667 8.5 -62.834 25.5 -90.501s36.167 -52.834 57.5 -75.501c-21.333 -10 -41.666 -21.667 -60.999 -35s-36.5 -28.5 -51.5 -45.5
s-26.833 -36.167 -35.5 -57.5s-13 -45 -13 -71c0 -32 6 -60.5 18 -85.5s28.167 -46.167 48.5 -63.5s44 -30.5 71 -39.5s55.167 -13.5 84.5 -13.5c48 0 88.667 10.833 122 32.5s64.666 51.5 93.999 89.5l100 -104h102l-159 164zM402.001 567.003
c0 -18 -4.16699 -33.998 -12.5 -47.998s-19 -26.333 -32 -37s-27.167 -20.167 -42.5 -28.5s-29.666 -16.5 -42.999 -24.5c-6 5.33301 -13.167 12.666 -21.5 21.999s-16.333 19.666 -24 30.999s-14.334 23.5 -20.001 36.5s-8.5 25.5 -8.5 37.5c0 32 10.167 57.333 30.5 76
s45.5 28 75.5 28c27.333 0 50.5 -8.5 69.5 -25.5s28.5 -39.5 28.5 -67.5zM441.001 152.005c-11.333 -14.667 -23 -28.3359 -35 -41.0029s-24.833 -23.667 -38.5 -33s-28.334 -16.666 -44.001 -21.999s-33.167 -8 -52.5 -8s-37.666 3.33301 -54.999 10
s-32.666 15.834 -45.999 27.501s-24 25.834 -32 42.501s-12 35 -12 55c0 18 2.33301 34.333 7 49s12 28.5 22 41.5s23.167 25.5 39.5 37.5s36.166 24.333 59.499 37z" />
    <glyph glyph-name="quotesingle" unicode="'" horiz-adv-x="260" 
d="M100 473h60v235h-60v-235z" />
    <glyph glyph-name="parenleft" unicode="(" horiz-adv-x="260" 
d="M199 736c-48 -65.333 -84.165 -137 -108.498 -215s-36.5 -155.667 -36.5 -233c0 -81.333 12.333 -160.666 37 -237.999s59.334 -147.333 104.001 -210l53 40c-20.667 34.667 -39 67.667 -55 99s-29.333 63 -40 95s-18.834 65.333 -24.501 100s-8.5 72.667 -8.5 114
s2.83301 79.666 8.5 114.999s14.167 69.5 25.5 102.5s25.166 65.5 41.499 97.5s35.166 65 56.499 99z" />
    <glyph glyph-name="parenright" unicode=")" horiz-adv-x="260" 
d="M61 -160c48 65.333 84.165 137 108.498 215s36.5 155.667 36.5 233c0 81.333 -12.333 160.666 -37 237.999s-59.334 147.333 -104.001 210l-53 -40c20.667 -34.667 39 -67.667 55 -99s29.333 -63 40 -95s18.834 -65.333 24.501 -100s8.5 -72.667 8.5 -114
s-2.83301 -79.666 -8.5 -114.999s-14.167 -69.5 -25.5 -102.5s-25.166 -65.5 -41.499 -97.5s-35.166 -65 -56.499 -99z" />
    <glyph glyph-name="asterisk" unicode="*" horiz-adv-x="444" 
d="M252 708h-60v-143l-140 45l-21 -56l141 -45l-90 -121l48 -36l92 124l92 -124l48 36l-90 121l141 45l-21 56l-140 -45v143z" />
    <glyph glyph-name="plus" unicode="+" horiz-adv-x="666" 
d="M363 558h-60v-225h-225v-60h225v-225h60v225h225v60h-225v225z" />
    <glyph glyph-name="comma" unicode="," horiz-adv-x="278" 
d="M213 95h-81l-67 -235h67z" />
    <glyph glyph-name="hyphen" unicode="-" horiz-adv-x="333" 
d="M295 273h-257v-66h257v66z" />
    <glyph glyph-name="period" unicode="." horiz-adv-x="278" 
d="M193 48c0 14 -5 26.5 -15 37.5s-23 16.5 -39 16.5s-29 -5.5 -39 -16.5s-15 -23.5 -15 -37.5s5 -26.5 15 -37.5s23 -16.5 39 -16.5s29 5.5 39 16.5s15 23.5 15 37.5z" />
    <glyph glyph-name="slash" unicode="/" horiz-adv-x="370" 
d="M365 706l-57 20l-303 -725l58 -19z" />
    <glyph glyph-name="zero" unicode="0" 
d="M278 720c-50.667 0 -91.667 -11.667 -123 -35s-55.666 -53 -72.999 -89s-29 -75.5 -35 -118.5s-9 -84.167 -9 -123.5s3 -80.5 9 -123.5s17.667 -82.5 35 -118.5s41.666 -65.667 72.999 -89s72.333 -35 123 -35s91.667 11.667 123 35s55.666 53 72.999 89
s29 75.5 35 118.5s9 84.167 9 123.5s-3 80.5 -9 123.5s-17.667 82.5 -35 118.5s-41.666 65.667 -72.999 89s-72.333 35 -123 35zM278 654c38.667 0 69.167 -10.333 91.5 -31s39.166 -46.334 50.499 -77.001s18.5 -63.334 21.5 -98.001s4.5 -66 4.5 -94
s-1.5 -59.333 -4.5 -94s-10.167 -67.334 -21.5 -98.001s-28.166 -56.334 -50.499 -77.001s-52.833 -31 -91.5 -31s-69.167 10.333 -91.5 31s-39.166 46.334 -50.499 77.001s-18.5 63.334 -21.5 98.001s-4.5 66 -4.5 94s1.5 59.333 4.5 94s10.167 67.334 21.5 98.001
s28.166 56.334 50.499 77.001s52.833 31 91.5 31z" />
    <glyph glyph-name="one" unicode="1" 
d="M348 708h-64l-180 -148l45 -54l127 112v-618h72v708z" />
    <glyph glyph-name="two" unicode="2" 
d="M498 66h-371.993l223 221l52.5 53c17 18 32.167 37 45.5 57s24.166 41.5 32.499 64.5s12.5 47.833 12.5 74.5c0 30.667 -5.83301 57.5 -17.5 80.5s-27.334 42.167 -47.001 57.5s-42.334 26.833 -68.001 34.5s-52.834 11.5 -81.501 11.5
c-54.667 0 -101.167 -15 -139.5 -45s-62.5 -71.333 -72.5 -124l76 -8c7.33301 34 23.666 61 48.999 81s56 30 92 30c19.333 0 37.166 -2.83301 53.499 -8.5s30.833 -13.834 43.5 -24.501s22.5 -23.667 29.5 -39s10.5 -32.666 10.5 -51.999c0 -16 -2.66699 -31.333 -8 -46
s-12.333 -28.667 -21 -42s-18.334 -25.833 -29.001 -37.5l-32 -34.5l-282 -287v-83h450v66z" />
    <glyph glyph-name="three" unicode="3" 
d="M204 338l31.001 0.00195312c23.333 0 45.833 -2.5 67.5 -7.5s40.834 -13.167 57.501 -24.5s30 -26.166 40 -44.499s15 -40.833 15 -67.5c0 -20.667 -3.83301 -39.667 -11.5 -57s-18.334 -32.166 -32.001 -44.499s-29.5 -21.833 -47.5 -28.5s-37 -10 -57 -10
c-42.667 0 -75.834 8.16699 -99.501 24.5s-41.5 41.5 -53.5 75.5l-76 -23c19.333 -50 48.333 -86.333 87 -109s84 -34 136 -34c30.667 0 59.667 4.5 87 13.5s51.333 22.167 72 39.5s37 38.666 49 63.999s18 54.333 18 87c0 22 -3.33301 43 -10 63s-16 38 -28 54
s-26.333 29.5 -43 40.5s-35 18.5 -55 22.5l-3 2c16 5.33301 31.333 13.166 46 23.499s27.5 22.5 38.5 36.5s19.667 29.667 26 47s9.5 35.666 9.5 54.999c0 29.333 -5.5 55.5 -16.5 78.5s-25.833 42.333 -44.5 58s-40.334 27.5 -65.001 35.5s-51 12 -79 12
c-43.333 0 -81.5 -9.16699 -114.5 -27.5s-60.167 -46.5 -81.5 -84.5l63 -32c14.667 25.333 33.334 44.666 56.001 57.999s49 20 79 20c41.333 0 73.5 -10.5 96.5 -31.5s34.5 -50.5 34.5 -88.5c0 -23.333 -4.16699 -43.333 -12.5 -60s-19.5 -30.167 -33.5 -40.5
s-30.333 -17.833 -49 -22.5s-38.667 -7 -60 -7h-37v-66z" />
    <glyph glyph-name="four" unicode="4" 
d="M416 708h-92l-286 -458v-82h306v-168h72v168h102v66h-102v474zM344 234h-246l244 402h2v-402z" />
    <glyph glyph-name="five" unicode="5" 
d="M465 708h-361.001l-7 -367c22.667 12 46.5 21.5 71.5 28.5s50.167 10.5 75.5 10.5s48.666 -4 69.999 -12s39.666 -19.5 54.999 -34.5s27.333 -32.667 36 -53s13 -43.166 13 -68.499c0 -22 -4.16699 -42.667 -12.5 -62s-19.666 -36 -33.999 -50
s-31.166 -25.167 -50.499 -33.5s-40.333 -12.5 -63 -12.5c-31.333 0 -59 8.16699 -83 24.5s-42.667 38.5 -56 66.5l-71 -31c19.333 -41.333 47 -72.666 83 -93.999s76.333 -32 121 -32c34 0 65.5 5.66699 94.5 17s54.167 27.166 75.5 47.499s38 44.666 50 72.999
s18 59.5 18 93.5c0 32.667 -5.5 62.834 -16.5 90.501s-26.333 51.667 -46 72s-43.167 36.166 -70.5 47.499s-57.666 17 -90.999 17c-16 0 -32 -1.33301 -48 -4s-31.667 -7 -47 -13l4 213h290v66z" />
    <glyph glyph-name="six" unicode="6" 
d="M385 708l-85.001 -0.000976562l-191 -311c-17.333 -28.667 -31.833 -57.667 -43.5 -87s-17.5 -63.666 -17.5 -102.999c0 -32.667 5.66699 -62.334 17 -89.001s27.333 -49.667 48 -69s45 -34.333 73 -45s58.667 -16 92 -16s64 5.33301 92 16s52.333 25.667 73 45
s36.667 42.333 48 69s17 56.334 17 89.001c0 32 -5.5 61.333 -16.5 88s-26.167 49.667 -45.5 69s-42.166 34.5 -68.499 45.5s-54.833 16.5 -85.5 16.5c-16 0 -33.5 -2 -52.5 -6s-34.167 -10 -45.5 -18l-2 2zM119.999 206.999c0 22.667 3.83301 43.334 11.5 62.001
s18.5 34.834 32.5 48.501s30.667 24.167 50 31.5s40.666 11 63.999 11s44.666 -3.66699 63.999 -11s36 -17.833 50 -31.5s24.833 -29.834 32.5 -48.501s11.5 -39.334 11.5 -62.001s-3.83301 -43.334 -11.5 -62.001s-18.5 -34.667 -32.5 -48s-30.667 -23.833 -50 -31.5
s-40.666 -11.5 -63.999 -11.5s-44.666 3.83301 -63.999 11.5s-36 18.167 -50 31.5s-24.833 29.333 -32.5 48s-11.5 39.334 -11.5 62.001z" />
    <glyph glyph-name="seven" unicode="7" 
d="M474 708h-420v-66h345l-291 -642h81l285 642v66z" />
    <glyph glyph-name="eight" unicode="8" 
d="M186 375c-40 -10.667 -71.9961 -32.667 -95.9961 -66s-36 -73.333 -36 -120c0 -30.667 6.16699 -58.334 18.5 -83.001s28.666 -45.834 48.999 -63.501s44 -31.167 71 -40.5s55.5 -14 85.5 -14s58.5 4.66699 85.5 14s50.667 22.833 71 40.5s36.666 38.834 48.999 63.501
s18.5 52.334 18.5 83.001c0 46.667 -12 86.667 -36 120s-56 55.333 -96 66v2c15.333 5.33301 29.5 13.166 42.5 23.499s24.167 22.5 33.5 36.5s16.666 29.333 21.999 46s8 34 8 52c0 28 -5.33301 53.5 -16 76.5s-25 42.5 -43 58.5s-39 28.333 -63 37s-49.333 13 -76 13
s-52 -4.33301 -76 -13s-45 -21 -63 -37s-32.333 -35.5 -43 -58.5s-16 -48.5 -16 -76.5c0 -18 2.66699 -35.333 8 -52s12.666 -32 21.999 -46s20.5 -26.167 33.5 -36.5s27.167 -18.166 42.5 -23.499v-2zM404.004 529c0 -18 -3.16699 -34.667 -9.5 -50
s-15.166 -28.5 -26.499 -39.5s-24.666 -19.667 -39.999 -26s-32 -9.5 -50 -9.5s-34.667 3.16699 -50 9.5s-28.666 15 -39.999 26s-20.166 24.167 -26.499 39.5s-9.5 32 -9.5 50s3.16699 34.667 9.5 50s15.166 28.5 26.499 39.5s24.666 19.667 39.999 26s32 9.5 50 9.5
s34.667 -3.16699 50 -9.5s28.666 -15 39.999 -26s20.166 -24.167 26.499 -39.5s9.5 -32 9.5 -50zM430.004 199c0 -20.667 -3.66699 -39.834 -11 -57.501s-17.5 -33 -30.5 -46s-28.833 -23.167 -47.5 -30.5s-39.667 -11 -63 -11c-22.667 0 -43.5 3.66699 -62.5 11
s-35 17.5 -48 30.5s-23.167 28.333 -30.5 46s-11 36.834 -11 57.501s3.66699 39.834 11 57.501s17.5 33 30.5 46s29 23.167 48 30.5s39.833 11 62.5 11c23.333 0 44.333 -3.66699 63 -11s34.5 -17.5 47.5 -30.5s23.167 -28.333 30.5 -46s11 -36.834 11 -57.501z" />
    <glyph glyph-name="nine" unicode="9" 
d="M171 0l85.001 0.000976562l191 311c17.333 28.667 31.833 57.667 43.5 87s17.5 63.666 17.5 102.999c0 32.667 -5.66699 62.334 -17 89.001s-27.333 49.667 -48 69s-45 34.333 -73 45s-58.667 16 -92 16s-64 -5.33301 -92 -16s-52.333 -25.667 -73 -45
s-36.667 -42.333 -48 -69s-17 -56.334 -17 -89.001c0 -32 5.5 -61.333 16.5 -88s26.167 -49.667 45.5 -69s42.166 -34.5 68.499 -45.5s54.833 -16.5 85.5 -16.5c16 0 33.5 2 52.5 6s34.167 10 45.5 18l2 -2zM436.001 501.001c0 -22.667 -3.83301 -43.334 -11.5 -62.001
s-18.5 -34.667 -32.5 -48s-30.667 -23.833 -50 -31.5s-40.666 -11.5 -63.999 -11.5s-44.666 3.83301 -63.999 11.5s-36 18.167 -50 31.5s-24.833 29.333 -32.5 48s-11.5 39.334 -11.5 62.001s3.83301 43.334 11.5 62.001s18.5 34.834 32.5 48.501s30.667 24.167 50 31.5
s40.666 11 63.999 11s44.666 -3.66699 63.999 -11s36 -17.833 50 -31.5s24.833 -29.834 32.5 -48.501s11.5 -39.334 11.5 -62.001z" />
    <glyph glyph-name="colon" unicode=":" horiz-adv-x="278" 
d="M193 419c0 14 -5 26.5 -15 37.5s-23 16.5 -39 16.5s-29 -5.5 -39 -16.5s-15 -23.5 -15 -37.5s5 -26.5 15 -37.5s23 -16.5 39 -16.5s29 5.5 39 16.5s15 23.5 15 37.5zM193 48c0 14 -5 26.5 -15 37.5s-23 16.5 -39 16.5s-29 -5.5 -39 -16.5s-15 -23.5 -15 -37.5
s5 -26.5 15 -37.5s23 -16.5 39 -16.5s29 5.5 39 16.5s15 23.5 15 37.5z" />
    <glyph glyph-name="semicolon" unicode=";" horiz-adv-x="278" 
d="M213 95h-81l-67 -235h67zM202 419c0 14 -5 26.5 -15 37.5s-23 16.5 -39 16.5s-29 -5.5 -39 -16.5s-15 -23.5 -15 -37.5s5 -26.5 15 -37.5s23 -16.5 39 -16.5s29 5.5 39 16.5s15 23.5 15 37.5z" />
    <glyph glyph-name="less" unicode="&#x3c;" horiz-adv-x="666" 
d="M588 564l-510 -238v-46l510 -238v60l-429 201l429 201v60z" />
    <glyph glyph-name="equal" unicode="=" horiz-adv-x="666" 
d="M78 408v-60h510v60h-510zM78 258v-60h510v60h-510z" />
    <glyph glyph-name="greater" unicode="&#x3e;" horiz-adv-x="666" 
d="M78 504l429 -201l-429 -201v-60l510 238v46l-510 238v-60z" />
    <glyph glyph-name="question" unicode="?" horiz-adv-x="482" 
d="M276 243c0 24.667 4.00098 45.1689 12.001 61.502s18 31 30 44s25 25.167 39 36.5s27 24.166 39 38.499s22 31.166 30 50.499s12 43 12 71s-4.83301 53 -14.5 75s-23 40.333 -40 55s-37.167 25.834 -60.5 33.501s-48.333 11.5 -75 11.5c-26 0 -50.333 -3.66699 -73 -11
s-42.834 -18.166 -60.501 -32.499s-32.334 -31.833 -44.001 -52.5s-19.5 -44 -23.5 -70l75 -9c6 32.667 20.167 59 42.5 79s50.5 30 84.5 30c34.667 0 62.834 -10.667 84.501 -32s32.5 -49 32.5 -83c0 -19.333 -4 -36.833 -12 -52.5s-17.833 -30.334 -29.5 -44.001
s-24.5 -26.5 -38.5 -38.5s-27 -24.5 -39 -37.5s-22.167 -26.833 -30.5 -41.5s-12.5 -31.334 -12.5 -50.001v-83h72v51zM300.001 48.002c0 14 -5 26.5 -15 37.5s-23 16.5 -39 16.5s-29 -5.5 -39 -16.5s-15 -23.5 -15 -37.5s5 -26.5 15 -37.5s23 -16.5 39 -16.5
s29 5.5 39 16.5s15 23.5 15 37.5z" />
    <glyph glyph-name="at" unicode="@" horiz-adv-x="800" 
d="M503 409c0 -20.667 -4.00195 -43.334 -12.002 -68.001s-19 -47.667 -33 -69s-30.333 -39.166 -49 -53.499s-39 -21.5 -61 -21.5c-27.333 0 -49.833 9 -67.5 27s-26.5 41 -26.5 69c0 23.333 4.16699 47.5 12.5 72.5s20 48 35 69s32.833 38.5 53.5 52.5s43 21.333 67 22
c10.667 0 20.834 -2.5 30.501 -7.5s18.334 -12 26.001 -21s13.667 -19.667 18 -32s6.5 -25.5 6.5 -39.5zM537.998 487l-1.99805 0.0078125c-10.667 30.667 -26.167 52 -46.5 64s-42.833 18 -67.5 18c-35.333 0 -67.333 -8.16699 -96 -24.5s-53.334 -37.833 -74.001 -64.5
s-36.5 -56.834 -47.5 -90.501s-16.5 -67.834 -16.5 -102.501c0 -44.667 13 -80.834 39 -108.501s60.333 -41.5 103 -41.5c29.333 0 53.666 5.83301 72.999 17.5s36.666 25.5 51.999 41.5h2c2.66699 -20.667 10 -35.667 22 -45s28 -14 48 -14
c22.667 0 47.334 6.5 74.001 19.5s51.5 31.833 74.5 56.5s42.333 54.334 58 89.001s23.5 73.667 23.5 117c0 45.333 -9 86.666 -27 123.999s-42.5 69.666 -73.5 96.999s-67.167 48.5 -108.5 63.5s-85 22.5 -131 22.5c-50.667 0 -98.667 -9.5 -144 -28.5
s-85 -45.333 -119 -79s-61 -73.167 -81 -118.5s-30 -94 -30 -146s10 -100.667 30 -146s47 -84.833 81 -118.5s73.667 -60 119 -79s93.333 -28.5 144 -28.5c32.667 0 64.5 4 95.5 12s60.167 19.5 87.5 34.5s52.333 33.333 75 55s42 46.167 58 73.5h-63
c-27.333 -38 -63.833 -67.667 -109.5 -89s-93.5 -32 -143.5 -32c-42.667 0 -83.167 8.83301 -121.5 26.5s-71.666 41.167 -99.999 70.5s-50.833 63.166 -67.5 101.499s-25 78.166 -25 119.499s8.33301 81.166 25 119.499s39.167 72.166 67.5 101.499
s61.666 52.833 99.999 70.5s78.833 26.5 121.5 26.5c35.333 0 69.666 -6.33301 102.999 -19s63.166 -30.334 89.499 -53.001s47.5 -49.667 63.5 -81s24 -66 24 -104c0 -28 -4.66699 -55 -14 -81s-21.166 -49.167 -35.499 -69.5s-30.5 -36.666 -48.5 -48.999
s-35.667 -18.5 -53 -18.5c-7.33301 0 -13 2 -17 6s-6 8.66699 -6 14c0 7.33301 0.833008 15.5 2.5 24.5s3.83398 17.833 6.50098 26.5l84 282h-56z" />
    <glyph glyph-name="A" unicode="A" horiz-adv-x="686" 
d="M162 186h362l78 -186h84l-308 708h-70l-308 -708h84zM343 624l153 -372h-307z" />
    <glyph glyph-name="B" unicode="B" horiz-adv-x="630" 
d="M96 0l215.999 -0.00292969c38 0 70.833 3.83301 98.5 11.5s51 17.5 70 29.5s34.333 25.333 46 40s20.667 29.334 27 44.001s10.666 28.334 12.999 41.001s3.5 22.667 3.5 30c0 52 -14.167 93.5 -42.5 124.5s-67.5 48.5 -117.5 52.5v2c40 9.33301 70.833 27.833 92.5 55.5
s32.5 60.834 32.5 99.501c0 33.333 -6.33301 61.333 -19 84s-29.667 41 -51 55s-45.666 24 -72.999 30s-55.666 9 -84.999 9h-211v-708zM167.999 641.997l138.001 -0.000976562c34 0 61 -4.83301 81 -14.5s35.167 -21.167 45.5 -34.5s17 -26.666 20 -39.999
s4.5 -23.666 4.5 -30.999c0 -22.667 -4.33301 -41.834 -13 -57.501s-19.834 -28.5 -33.501 -38.5s-29 -17.167 -46 -21.5s-34.167 -6.5 -51.5 -6.5h-145v244zM168 337.996l147.002 0.000976562c58 0 102 -11.333 132 -34s45 -57.334 45 -104.001
c0 -23.333 -4.83301 -43.333 -14.5 -60s-22.834 -30.5 -39.501 -41.5s-36.334 -19.167 -59.001 -24.5s-47 -8 -73 -8h-138v272z" />
    <glyph glyph-name="C" unicode="C" horiz-adv-x="704" 
d="M620 154c-26.667 -40.667 -57.834 -68.502 -93.501 -83.502s-72.167 -22.5 -109.5 -22.5c-45.333 0 -86 8.33301 -122 25s-66.5 39 -91.5 67s-44.167 60.5 -57.5 97.5s-20 75.833 -20 116.5s6.66699 79.5 20 116.5s32.5 69.5 57.5 97.5s55.5 50.333 91.5 67
s76.667 25 122 25c18.667 0 37.334 -2.66699 56.001 -8s36.167 -12.333 52.5 -21s31 -18.667 44 -30s22.833 -22.666 29.5 -33.999l63 47c-31.333 40 -69 68.667 -113 86s-88 26 -132 26c-52.667 0 -101.5 -9.33301 -146.5 -28s-84 -44.5 -117 -77.5
s-58.833 -72.167 -77.5 -117.5s-28 -95 -28 -149s9.33301 -103.667 28 -149s44.5 -84.5 77.5 -117.5s72 -58.833 117 -77.5s93.833 -28 146.5 -28c29.333 0 57.333 3.33301 84 10s51.167 15.834 73.5 27.501s42.333 25.5 60 41.5s32.5 33 44.5 51z" />
    <glyph glyph-name="D" unicode="D" horiz-adv-x="741" 
d="M86 0l235 -0.00195312c44 0 88.167 7.33301 132.5 22s84.333 36.834 120 66.501s64.5 66.667 86.5 111s33 95.833 33 154.5c0 59.333 -11 111 -33 155s-50.833 80.833 -86.5 110.5s-75.667 51.834 -120 66.501s-88.5 22 -132.5 22h-235v-708zM158 641.998h140
c54 0 100.833 -8.16699 140.5 -24.5s72.667 -38 99 -65s45.833 -57.667 58.5 -92s19 -69.833 19 -106.5s-6.33301 -72.167 -19 -106.5s-32.167 -65 -58.5 -92s-59.333 -48.667 -99 -65s-86.5 -24.5 -140.5 -24.5h-140v576z" />
    <glyph glyph-name="E" unicode="E" horiz-adv-x="593" 
d="M168 335h343v66h-343v241h367v66h-439v-708h451v66h-379v269z" />
    <glyph glyph-name="F" unicode="F" 
d="M168 335h330v66h-330v241h355v66h-427v-708h72v335z" />
    <glyph glyph-name="G" unicode="G" horiz-adv-x="778" 
d="M673 631c-32 32 -68.498 55.834 -109.498 71.501s-89.833 23.5 -146.5 23.5c-52.667 0 -101.5 -9.33301 -146.5 -28s-84 -44.5 -117 -77.5s-58.833 -72.167 -77.5 -117.5s-28 -95 -28 -149s9.33301 -103.667 28 -149s44.5 -84.5 77.5 -117.5s72 -58.833 117 -77.5
s93.833 -28 146.5 -28c43.333 0 88.833 6.16699 136.5 18.5s91.5 30.166 131.5 53.499v347h-241v-66h169v-237c-26.667 -15.333 -56.834 -27.5 -90.501 -36.5s-68.834 -13.5 -105.501 -13.5c-45.333 0 -86 8.33301 -122 25s-66.5 39 -91.5 67s-44.167 60.5 -57.5 97.5
s-20 75.833 -20 116.5s6.66699 79.5 20 116.5s32.5 69.5 57.5 97.5s55.5 50.333 91.5 67s76.667 25 122 25c44 0 82.667 -7.33301 116 -22s62 -34.667 86 -60z" />
    <glyph glyph-name="H" unicode="H" horiz-adv-x="722" 
d="M96 0h72v335h386v-335h72v708h-72v-307h-386v307h-72v-708z" />
    <glyph glyph-name="I" unicode="I" horiz-adv-x="264" 
d="M168 708h-72v-708h72v708z" />
    <glyph glyph-name="J" unicode="J" horiz-adv-x="482" 
d="M14 130c8 -48.667 28.332 -85.5 60.999 -110.5s73.334 -37.5 122.001 -37.5c38 0 69.667 6.66699 95 20s45.833 30.166 61.5 50.499s26.667 43 33 68s9.5 49.5 9.5 73.5v514h-72v-484c0 -22 -1.66699 -43.5 -5 -64.5s-9.5 -39.667 -18.5 -56s-21.667 -29.666 -38 -39.999
s-37.5 -15.5 -63.5 -15.5c-32 0 -57 8.66699 -75 26s-30.333 41 -37 71z" />
    <glyph glyph-name="K" unicode="K" horiz-adv-x="630" 
d="M168 708h-72v-708h72v365h12l348 -365h106l-377 387l357 321h-103l-333 -307h-10v307z" />
    <glyph glyph-name="L" unicode="L" horiz-adv-x="500" 
d="M168 708h-72v-708h402v66h-330v642z" />
    <glyph glyph-name="M" unicode="M" horiz-adv-x="890" 
d="M206 708h-110v-708h72v612h2l256 -612h38l256 612h2v-612h72v708h-110l-239 -576z" />
    <glyph glyph-name="N" unicode="N" horiz-adv-x="778" 
d="M186 708h-90v-708h72v606h2l422 -606h90v708h-72v-600h-2z" />
    <glyph glyph-name="O" unicode="O" horiz-adv-x="834" 
d="M786 354c0 54 -9.33301 103.667 -28 149s-44.5 84.5 -77.5 117.5s-72 58.833 -117 77.5s-93.833 28 -146.5 28s-101.5 -9.33301 -146.5 -28s-84 -44.5 -117 -77.5s-58.833 -72.167 -77.5 -117.5s-28 -95 -28 -149s9.33301 -103.667 28 -149s44.5 -84.5 77.5 -117.5
s72 -58.833 117 -77.5s93.833 -28 146.5 -28s101.5 9.33301 146.5 28s84 44.5 117 77.5s58.833 72.167 77.5 117.5s28 95 28 149zM708 354c0 -40.667 -6.66699 -79.5 -20 -116.5s-32.5 -69.5 -57.5 -97.5s-55.5 -50.333 -91.5 -67s-76.667 -25 -122 -25s-86 8.33301 -122 25
s-66.5 39 -91.5 67s-44.167 60.5 -57.5 97.5s-20 75.833 -20 116.5s6.66699 79.5 20 116.5s32.5 69.5 57.5 97.5s55.5 50.333 91.5 67s76.667 25 122 25s86 -8.33301 122 -25s66.5 -39 91.5 -67s44.167 -60.5 57.5 -97.5s20 -75.833 20 -116.5z" />
    <glyph glyph-name="P" unicode="P" horiz-adv-x="574" 
d="M96 0l72 0.000976562v329h134c72 0 128.833 15.833 170.5 47.5s62.5 79.167 62.5 142.5s-20.833 110.666 -62.5 141.999s-98.5 47 -170.5 47h-206v-708zM168 642.001l116 -0.000976562c32 0 59.167 -3.16699 81.5 -9.5s40.166 -15.166 53.499 -26.499s23 -24.333 29 -39
s9 -30.667 9 -48c0 -16.667 -3 -32.667 -9 -48s-15.667 -28.5 -29 -39.5s-31.166 -19.833 -53.499 -26.5s-49.5 -10 -81.5 -10h-116v247z" />
    <glyph glyph-name="Q" unicode="Q" horiz-adv-x="834" 
d="M126 363c0 39.333 6.33301 76.833 19 112.5s31 67.167 55 94.5s53.333 49.166 88 65.499s74 24.5 118 24.5c43.333 0 82.333 -8.16699 117 -24.5s64 -38.166 88 -65.499s42.333 -58.833 55 -94.5s19 -73.167 19 -112.5s-6.33301 -76.833 -19 -112.5
s-31 -67.167 -55 -94.5s-53.333 -49.166 -88 -65.499s-73.667 -24.5 -117 -24.5c-44 0 -83.333 8.16699 -118 24.5s-64 38.166 -88 65.499s-42.333 58.833 -55 94.5s-19 73.167 -19 112.5zM811 66l-214.001 -0.000976562v2c58 30.667 100.167 71.5 126.5 122.5
s39.5 108.5 39.5 172.5c0 52.667 -9 101.167 -27 145.5s-43 82.666 -75 114.999s-69.667 57.5 -113 75.5s-90.666 27 -141.999 27s-98.833 -9 -142.5 -27s-81.5 -43.167 -113.5 -75.5s-57 -70.666 -75 -114.999s-27 -92.833 -27 -145.5s9 -101.167 27 -145.5
s43 -82.666 75 -114.999s69.833 -57.5 113.5 -75.5s91.167 -27 142.5 -27h405v66z" />
    <glyph glyph-name="R" unicode="R" horiz-adv-x="593" 
d="M168 329l120 0.000976562l194 -329h88l-204 336c58.667 5.33301 103.5 24.833 134.5 58.5s46.5 75.167 46.5 124.5c0 63.333 -20.833 110.666 -62.5 141.999s-98.5 47 -170.5 47h-218v-708h72v329zM168 642.001l128 -0.000976562c32 0 59.167 -3.16699 81.5 -9.5
s40.166 -15.166 53.499 -26.499s23 -24.333 29 -39s9 -30.667 9 -48c0 -16.667 -3 -32.667 -9 -48s-15.667 -28.5 -29 -39.5s-31.166 -19.833 -53.499 -26.5s-49.5 -10 -81.5 -10h-128v247z" />
    <glyph glyph-name="S" unicode="S" 
d="M494 640c-28 32 -58.335 54.332 -91.002 66.999s-69 19 -109 19c-28.667 0 -56.667 -4 -84 -12s-51.833 -20.333 -73.5 -37s-39 -37.667 -52 -63s-19.5 -55 -19.5 -89c0 -32.667 5.16699 -59.834 15.5 -81.501s24 -39.667 41 -54s36.333 -26.166 58 -35.499
s44 -17.666 67 -24.999l67 -22c21.667 -7.33301 41 -16.5 58 -27.5s30.667 -24.5 41 -40.5s15.5 -36.667 15.5 -62c0 -20.667 -4.66699 -39 -14 -55s-21.166 -29.5 -35.499 -40.5s-30.5 -19.333 -48.5 -25s-36 -8.5 -54 -8.5c-37.333 0 -69.666 7.83301 -96.999 23.5
s-48.666 36.5 -63.999 62.5l-65 -47c27.333 -37.333 60.5 -64.166 99.5 -80.499s80.167 -24.5 123.5 -24.5c28 0 55.833 4.66699 83.5 14s52.667 22.666 75 39.999s40.333 38.833 54 64.5s20.5 54.5 20.5 86.5c0 42.667 -9 76.334 -27 101.001s-40.333 44.5 -67 59.5
s-55.834 27 -87.501 36s-60.834 19.167 -87.501 30.5s-49 25.833 -67 43.5s-27 42.5 -27 74.5c0 22 4.33301 41.167 13 57.5s20.167 29.666 34.5 39.999s30.5 18 48.5 23s36.333 7.5 55 7.5c60.667 0 106.334 -23 137.001 -69z" />
    <glyph glyph-name="T" unicode="T" horiz-adv-x="574" 
d="M323 642h237v66h-546v-66h237v-642h72v642z" />
    <glyph glyph-name="U" unicode="U" horiz-adv-x="686" 
d="M602 708h-72.001v-436c0 -50.667 -7.16699 -91 -21.5 -121s-31.5 -52.5 -51.5 -67.5s-40.667 -24.667 -62 -29s-38.666 -6.5 -51.999 -6.5s-30.666 2.16699 -51.999 6.5s-42 14 -62 29s-37.167 37.5 -51.5 67.5s-21.5 70.333 -21.5 121v436h-72v-444
c0 -29.333 3.5 -60.5 10.5 -93.5s20.167 -63.5 39.5 -91.5s45.833 -51.167 79.5 -69.5s76.834 -27.5 129.501 -27.5c53.333 0 96.666 9.16699 129.999 27.5s59.666 41.5 78.999 69.5s32.5 58.5 39.5 91.5s10.5 64.167 10.5 93.5v444z" />
    <glyph glyph-name="V" unicode="V" horiz-adv-x="611" 
d="M77 708h-80l269 -708h72l276 708h-78l-232 -600h-2z" />
    <glyph glyph-name="W" unicode="W" horiz-adv-x="944" 
d="M80 708h-80l209 -708h84l178 606h2l178 -606h84l209 708h-80l-168 -606h-2l-178 606h-86l-178 -606h-2z" />
    <glyph glyph-name="X" unicode="X" horiz-adv-x="630" 
d="M123 708h-97l239 -336l-259 -372h90l217 321l216 -321h95l-260 372l240 336h-90l-198 -283z" />
    <glyph glyph-name="Y" unicode="Y" horiz-adv-x="574" 
d="M323 305l265 403h-90l-211 -334l-211 334h-90l265 -403v-305h72v305z" />
    <glyph glyph-name="Z" unicode="Z" 
d="M527 708h-498v-66h408l-414 -582v-60h510v66h-419l413 582v60z" />
    <glyph glyph-name="bracketleft" unicode="[" horiz-adv-x="260" 
d="M227 732h-162v-888h162v54h-96v780h96v54z" />
    <glyph glyph-name="backslash" unicode="\" horiz-adv-x="370" 
d="M307 -18l58 19l-303 725l-57 -20z" />
    <glyph glyph-name="bracketright" unicode="]" horiz-adv-x="260" 
d="M33 -156h162v888h-162v-54h96v-780h-96v-54z" />
    <glyph glyph-name="asciicircum" unicode="^" horiz-adv-x="666" 
d="M80 275h62l191 361l191 -361h62l-229 433h-48z" />
    <glyph glyph-name="underscore" unicode="_" horiz-adv-x="500" 
d="M0 -125h500v50h-500v-50z" />
    <glyph glyph-name="grave" unicode="`" horiz-adv-x="240" 
d="M122 564h59l-100 144h-91z" />
    <glyph glyph-name="a" unicode="a" horiz-adv-x="519" 
d="M339 287c-28 0 -58.832 -1.33496 -92.499 -4.00195s-65.334 -9.33398 -95.001 -20.001s-54.334 -26.834 -74.001 -48.501s-29.5 -51.5 -29.5 -89.5c0 -22.667 4.5 -42.5 13.5 -59.5s21 -31.333 36 -43s32.167 -20.334 51.5 -26.001s39.333 -8.5 60 -8.5
c38 0 70.167 6.83301 96.5 20.5s49.166 36.167 68.499 67.5h2c0 -12.667 0.5 -25.667 1.5 -39s2.5 -25.666 4.5 -36.999h64c-2 12.667 -3.83301 28.834 -5.5 48.501s-2.5 38.5 -2.5 56.5v209c0 28.667 -4.66699 53.334 -14 74.001s-21.666 37.834 -36.999 51.501
s-33.333 23.834 -54 30.501s-42.667 10 -66 10c-88 0 -154 -22.667 -198 -68l40 -47c40.667 36.667 88.334 55 143.001 55c80 0 120 -40.333 120 -121v-12h-33zM372.001 232.998v-33.999c0 -20.667 -2.83301 -40.167 -8.5 -58.5s-14.5 -34.333 -26.5 -48
s-26.833 -24.5 -44.5 -32.5s-38.5 -12 -62.5 -12c-13.333 0 -26.5 1.5 -39.5 4.5s-24.833 8 -35.5 15s-19.167 16 -25.5 27s-9.5 24.167 -9.5 39.5c0 16 3.83301 29.333 11.5 40s17.667 19.667 30 27s26.333 13.166 42 17.499s31.667 7.5 48 9.5s32 3.33301 47 4
s28.167 1 39.5 1h34z" />
    <glyph glyph-name="b" unicode="b" horiz-adv-x="611" 
d="M72 0l66 -0.00390625v78h2c10.667 -16 23.334 -29.667 38.001 -41s30 -20.666 46 -27.999s32.5 -12.666 49.5 -15.999s33.167 -5 48.5 -5c36.667 0 70.167 6.16699 100.5 18.5s56.5 29.5 78.5 51.5s39.167 48 51.5 78s18.5 62.667 18.5 98s-6.16699 68 -18.5 98
s-29.5 56 -51.5 78s-48.167 39.167 -78.5 51.5s-63.833 18.5 -100.5 18.5c-15.333 0 -31.5 -1.66699 -48.5 -5s-33.5 -8.66602 -49.5 -15.999s-31.333 -16.666 -46 -27.999s-27.334 -25 -38.001 -41h-2v366h-66v-756zM499 233.996c0 -26 -4.16699 -50.333 -12.5 -73
s-20.166 -42.334 -35.499 -59.001s-33.833 -29.834 -55.5 -39.501s-46.167 -14.5 -73.5 -14.5c-26.667 0 -51.5 4.83301 -74.5 14.5s-42.833 22.834 -59.5 39.501s-29.667 36.334 -39 59.001s-14 47 -14 73s4.66699 50.333 14 73s22.333 42.334 39 59.001
s36.5 29.834 59.5 39.501s47.833 14.5 74.5 14.5c27.333 0 51.833 -4.83301 73.5 -14.5s40.167 -22.834 55.5 -39.501s27.166 -36.334 35.499 -59.001s12.5 -47 12.5 -73z" />
    <glyph glyph-name="c" unicode="c" horiz-adv-x="482" 
d="M467 399c-23.333 27.333 -49.666 47.498 -78.999 60.498s-60 19.833 -92 20.5c-38 0.666992 -72.333 -5.16602 -103 -17.499s-56.834 -29.5 -78.501 -51.5s-38.167 -48.167 -49.5 -78.5s-17 -63.166 -17 -98.499s5.66699 -68.166 17 -98.499s27.833 -56.5 49.5 -78.5
s47.834 -39.167 78.501 -51.5s65 -18.166 103 -17.499c32 0.666992 62.667 7.5 92 20.5s55.666 33.167 78.999 60.5l-54 41c-11.333 -17.333 -27.166 -32 -47.499 -44s-43.5 -18 -69.5 -18c-27.333 -0.666992 -51.833 3.66602 -73.5 12.999s-40.167 22.333 -55.5 39
s-27 36.5 -35 59.5s-12 47.833 -12 74.5s4 51.5 12 74.5s19.667 42.833 35 59.5s33.833 29.667 55.5 39s46.167 13.666 73.5 12.999c26 0 49.167 -6 69.5 -18s36.166 -26.667 47.499 -44z" />
    <glyph glyph-name="d" unicode="d" horiz-adv-x="611" 
d="M539 756l-66 0.00390625v-366h-2c-10.667 16 -23.334 29.667 -38.001 41s-30 20.666 -46 27.999s-32.5 12.666 -49.5 15.999s-33.167 5 -48.5 5c-36.667 0 -70.167 -6.16699 -100.5 -18.5s-56.5 -29.5 -78.5 -51.5s-39.167 -48 -51.5 -78s-18.5 -62.667 -18.5 -98
s6.16699 -68 18.5 -98s29.5 -56 51.5 -78s48.167 -39.167 78.5 -51.5s63.833 -18.5 100.5 -18.5c15.333 0 31.5 1.66699 48.5 5s33.5 8.66602 49.5 15.999s31.333 16.666 46 27.999s27.334 25 38.001 41h2v-78h66v756zM112 234.004c0 26 4.16699 50.333 12.5 73
s20.166 42.334 35.499 59.001s33.833 29.834 55.5 39.501s46.167 14.5 73.5 14.5s52.333 -4.83301 75 -14.5s42.334 -22.834 59.001 -39.501s29.667 -36.334 39 -59.001s14 -47 14 -73s-4.66699 -50.333 -14 -73s-22.333 -42.334 -39 -59.001
s-36.334 -29.834 -59.001 -39.501s-47.667 -14.5 -75 -14.5s-51.833 4.83301 -73.5 14.5s-40.167 22.834 -55.5 39.501s-27.166 36.334 -35.499 59.001s-12.5 47 -12.5 73z" />
    <glyph glyph-name="e" unicode="e" 
d="M508 216l-0.00195312 30c0 32 -5 62.167 -15 90.5s-24.5 53 -43.5 74s-42.5 37.833 -70.5 50.5s-59.667 19 -95 19c-33.333 0 -64.333 -6.16699 -93 -18.5s-53.667 -29.5 -75 -51.5s-38 -48 -50 -78s-18 -62.667 -18 -98s6.16699 -68 18.5 -98s29.166 -56 50.499 -78
s46.833 -39.167 76.5 -51.5s61.834 -18.5 96.501 -18.5c38.667 0 74.834 7.66699 108.501 23s64.5 40.666 92.5 75.999l-51 42c-13.333 -21.333 -32.833 -40.166 -58.5 -56.499s-56.167 -24.5 -91.5 -24.5c-23.333 0 -45 4.33301 -65 13s-37.667 20.5 -53 35.5
s-27.666 32.833 -36.999 53.5s-15 42.667 -17 66h390zM119.998 270c0 19.333 4.5 38.001 13.5 56.001s21 34 36 48s32.5 25.167 52.5 33.5s40.667 12.5 62 12.5c48 0 85.333 -13.833 112 -41.5s40 -63.834 40 -108.501h-316z" />
    <glyph glyph-name="f" unicode="f" horiz-adv-x="296" 
d="M290 468l-111.001 0.000976562v120c0 17.333 1 33.166 3 47.499s6 27 12 38s14.667 19.5 26 25.5s26 9 44 9c8.66699 0 17.334 -0.666992 26.001 -2s17 -3 25 -5l12 60c-9.33301 2 -18.833 3.66699 -28.5 5s-19.167 2 -28.5 2c-47.333 0 -85.333 -13.167 -114 -39.5
s-43 -70.5 -43 -132.5v-128h-99v-60h99v-408h66v408h111v60z" />
    <glyph glyph-name="g" unicode="g" horiz-adv-x="611" 
d="M59 -146c30 -32 63.3291 -55.6689 99.9961 -71.002s78.334 -23 125.001 -23c52.667 0 95.334 8 128.001 24s58.167 36 76.5 60s30.666 50.333 36.999 79s9.5 55.667 9.5 81v464h-66v-78h-2c-13.333 18 -27.666 32.833 -42.999 44.5s-30.833 20.834 -46.5 27.501
s-31.334 11.334 -47.001 14.001s-30.5 4 -44.5 4c-34.667 0 -66.5 -6.16699 -95.5 -18.5s-54 -29.5 -75 -51.5s-37.5 -47.667 -49.5 -77s-18 -61 -18 -95s6.33301 -65.667 19 -95s30 -54.5 52 -75.5s47.833 -37.5 77.5 -49.5s61.5 -18 95.5 -18s66.333 6.66699 97 20
s56.667 36 78 68h2v-84c0 -25.333 -3.16699 -49.166 -9.5 -71.499s-16.666 -41.833 -30.999 -58.5s-33.166 -29.834 -56.499 -39.501s-51.666 -14.5 -84.999 -14.5c-38 0 -72.5 7.83301 -103.5 23.5s-56.167 36.5 -75.5 62.5zM119.996 239.998
c0 24.667 4.50098 47.834 13.501 69.501s21.333 40.667 37 57s34 29.333 55 39s43.833 14.5 68.5 14.5c27.333 0 52 -4.83301 74 -14.5s40.667 -22.667 56 -39s27 -35.333 35 -57s12 -44.834 12 -69.501c1.33301 -26.667 -2.66699 -51.167 -12 -73.5
s-22.333 -41.333 -39 -57s-35.834 -27.834 -57.501 -36.501s-44.5 -13 -68.5 -13c-24.667 0 -47.5 4.83301 -68.5 14.5s-39.333 22.667 -55 39s-28 35.333 -37 57s-13.5 44.834 -13.5 69.501z" />
    <glyph glyph-name="h" unicode="h" 
d="M72 0l66 0.000976562v240c0 42.667 6.66699 76 20 100s28.5 42 45.5 54s33.167 19.333 48.5 22s24.666 4 27.999 4c24.667 0 45.167 -3.5 61.5 -10.5s29.333 -17.333 39 -31s16.5 -30.5 20.5 -50.5s6 -43 6 -69v-259h66v297c0 58.667 -14.333 103.834 -43 135.501
s-73 47.5 -133 47.5c-15.333 0 -30.833 -2.16699 -46.5 -6.5s-30.5 -10.333 -44.5 -18s-26.667 -16.834 -38 -27.501s-20.666 -22.334 -27.999 -35.001h-2v363h-66v-756z" />
    <glyph glyph-name="i" unicode="i" horiz-adv-x="240" 
d="M153 468h-66v-468h66v468zM168 648c0 14 -5 25.5 -15 34.5s-21 13.5 -33 13.5s-23 -4.5 -33 -13.5s-15 -20.5 -15 -34.5s5 -25.5 15 -34.5s21 -13.5 33 -13.5s23 4.5 33 13.5s15 20.5 15 34.5z" />
    <glyph glyph-name="j" unicode="j" horiz-adv-x="240" 
d="M-31 -230c16 -6.66699 33.3311 -10.001 51.998 -10.001c35.333 0 62 6.33301 80 19s30.833 27.334 38.5 44.001s11.834 33.167 12.501 49.5s1 27.833 1 34.5v561h-66v-550c0 -11.333 -0.666992 -22.666 -2 -33.999s-4.33301 -21.833 -9 -31.5
s-11.834 -17.5 -21.501 -23.5s-22.5 -9 -38.5 -9c-5.33301 0 -11.166 0.666992 -17.499 2s-12.166 2.66602 -17.499 3.99902l-3 1zM167.998 647.999c0 14 -5 25.5 -15 34.5s-21 13.5 -33 13.5s-23 -4.5 -33 -13.5s-15 -20.5 -15 -34.5s5 -25.5 15 -34.5s21 -13.5 33 -13.5
s23 4.5 33 13.5s15 20.5 15 34.5z" />
    <glyph glyph-name="k" unicode="k" horiz-adv-x="482" 
d="M138 756h-66v-756h66v246l243 -246h102l-258 254l233 214h-99l-221 -211v499z" />
    <glyph glyph-name="l" unicode="l" horiz-adv-x="240" 
d="M153 756h-66v-756h66v756z" />
    <glyph glyph-name="m" unicode="m" horiz-adv-x="852" 
d="M72 0l66 -0.00488281v240c0 42.667 6.16699 76 18.5 100s26.166 42 41.499 54s30.166 19.333 44.499 22s23.5 4 27.5 4c45.333 0 76.333 -12.667 93 -38s25 -61.666 25 -108.999v-273h66v249c0 22 2.33301 43.167 7 63.5s12.167 38.5 22.5 54.5s23.833 28.833 40.5 38.5
s37.334 14.5 62.001 14.5c45.333 0 76.333 -12.667 93 -38s25 -61.666 25 -108.999v-273h66v297c0 58.667 -14.333 103.834 -43 135.501s-73 47.5 -133 47.5c-31.333 0 -61.5 -8.66699 -90.5 -26s-50.167 -41 -63.5 -71c-8 20 -17.833 36.333 -29.5 49
s-24.167 22.5 -37.5 29.5s-27.166 11.833 -41.499 14.5s-27.833 4 -40.5 4c-28 0 -56.167 -7 -84.5 -21s-50.5 -34.667 -66.5 -62h-2v71h-71c1.33301 -17.333 2.5 -34.666 3.5 -51.999s1.5 -34.666 1.5 -51.999v-364z" />
    <glyph glyph-name="n" unicode="n" 
d="M67 468c1.33301 -17.333 2.49902 -35.666 3.49902 -54.999s1.5 -35.333 1.5 -48v-365h66v240c0 42.667 6.66699 76 20 100s28.5 42 45.5 54s33.167 19.333 48.5 22s24.666 4 27.999 4c24.667 0 45.167 -3.5 61.5 -10.5s29.333 -17.333 39 -31s16.5 -30.5 20.5 -50.5
s6 -43 6 -69v-259h66v297c0 58.667 -14.333 103.834 -43 135.501s-73 47.5 -133 47.5c-15.333 0 -30.833 -2.16699 -46.5 -6.5s-30.5 -10.333 -44.5 -18s-26.667 -16.834 -38 -27.501s-20.666 -22.334 -27.999 -35.001h-2c0 12.667 -0.166992 25.167 -0.5 37.5
s-1.16602 24.833 -2.49902 37.5h-68z" />
    <glyph glyph-name="o" unicode="o" horiz-adv-x="593" 
d="M545 234c0 35.333 -6.16699 68 -18.5 98s-29.5 56 -51.5 78s-48.167 39.167 -78.5 51.5s-63.833 18.5 -100.5 18.5c-36 0 -69.167 -6.16699 -99.5 -18.5s-56.5 -29.5 -78.5 -51.5s-39.167 -48 -51.5 -78s-18.5 -62.667 -18.5 -98s6.16699 -68 18.5 -98s29.5 -56 51.5 -78
s48.167 -39.167 78.5 -51.5s63.5 -18.5 99.5 -18.5c36.667 0 70.167 6.16699 100.5 18.5s56.5 29.5 78.5 51.5s39.167 48 51.5 78s18.5 62.667 18.5 98zM473 234c0 -26 -4.16699 -50.333 -12.5 -73s-20.166 -42.334 -35.499 -59.001s-33.833 -29.834 -55.5 -39.501
s-46.167 -14.5 -73.5 -14.5c-26.667 0 -51 4.83301 -73 14.5s-40.5 22.834 -55.5 39.501s-26.667 36.334 -35 59.001s-12.5 47 -12.5 73s4.16699 50.333 12.5 73s20 42.334 35 59.001s33.5 29.834 55.5 39.501s46.333 14.5 73 14.5c27.333 0 51.833 -4.83301 73.5 -14.5
s40.167 -22.834 55.5 -39.501s27.166 -36.334 35.499 -59.001s12.5 -47 12.5 -73z" />
    <glyph glyph-name="p" unicode="p" horiz-adv-x="611" 
d="M72 -288l66 -0.00390625v366h2c10.667 -16 23.334 -29.667 38.001 -41s30 -20.666 46 -27.999s32.5 -12.666 49.5 -15.999s33.167 -5 48.5 -5c36.667 0 70.167 6.16699 100.5 18.5s56.5 29.5 78.5 51.5s39.167 48 51.5 78s18.5 62.667 18.5 98s-6.16699 68 -18.5 98
s-29.5 56 -51.5 78s-48.167 39.167 -78.5 51.5s-63.833 18.5 -100.5 18.5c-15.333 0 -31.5 -1.66699 -48.5 -5s-33.5 -8.66602 -49.5 -15.999s-31.333 -16.666 -46 -27.999s-27.334 -25 -38.001 -41h-2v78h-66v-756zM499 233.996c0 -26 -4.16699 -50.333 -12.5 -73
s-20.166 -42.334 -35.499 -59.001s-33.833 -29.834 -55.5 -39.501s-46.167 -14.5 -73.5 -14.5c-26.667 0 -51.5 4.83301 -74.5 14.5s-42.833 22.834 -59.5 39.501s-29.667 36.334 -39 59.001s-14 47 -14 73s4.66699 50.333 14 73s22.333 42.334 39 59.001
s36.5 29.834 59.5 39.501s47.833 14.5 74.5 14.5c27.333 0 51.833 -4.83301 73.5 -14.5s40.167 -22.834 55.5 -39.501s27.166 -36.334 35.499 -59.001s12.5 -47 12.5 -73z" />
    <glyph glyph-name="q" unicode="q" horiz-adv-x="611" 
d="M539 468l-66 0.00390625v-78h-2c-10.667 16 -23.334 29.667 -38.001 41s-30 20.666 -46 27.999s-32.5 12.666 -49.5 15.999s-33.167 5 -48.5 5c-36.667 0 -70.167 -6.16699 -100.5 -18.5s-56.5 -29.5 -78.5 -51.5s-39.167 -48 -51.5 -78s-18.5 -62.667 -18.5 -98
s6.16699 -68 18.5 -98s29.5 -56 51.5 -78s48.167 -39.167 78.5 -51.5s63.833 -18.5 100.5 -18.5c15.333 0 31.5 1.66699 48.5 5s33.5 8.66602 49.5 15.999s31.333 16.666 46 27.999s27.334 25 38.001 41h2v-366h66v756zM112 234.004c0 26 4.16699 50.333 12.5 73
s20.166 42.334 35.499 59.001s33.833 29.834 55.5 39.501s46.167 14.5 73.5 14.5s52.333 -4.83301 75 -14.5s42.334 -22.834 59.001 -39.501s29.667 -36.334 39 -59.001s14 -47 14 -73s-4.66699 -50.333 -14 -73s-22.333 -42.334 -39 -59.001
s-36.334 -29.834 -59.001 -39.501s-47.667 -14.5 -75 -14.5s-51.833 4.83301 -73.5 14.5s-40.167 22.834 -55.5 39.501s-27.166 36.334 -35.499 59.001s-12.5 47 -12.5 73z" />
    <glyph glyph-name="r" unicode="r" horiz-adv-x="332" 
d="M79 0l66.001 0.00195312v264c0 16 2.83301 32.667 8.5 50s14.5 33.5 26.5 48.5s27.167 27.333 45.5 37s39.833 14.5 64.5 14.5c16.667 0 29.334 -1.66699 38.001 -5l13 65c-14 4 -30.333 6 -49 6c-20.667 0 -39.167 -2.83301 -55.5 -8.5s-30.666 -13.167 -42.999 -22.5
s-22.833 -19.833 -31.5 -31.5s-15.334 -23.834 -20.001 -36.501h-2v87h-65c0.666992 -16.667 1.16699 -31.834 1.5 -45.501s0.666016 -26.167 0.999023 -37.5s0.666016 -22 0.999023 -32s0.5 -20.333 0.5 -31v-322z" />
    <glyph glyph-name="s" unicode="s" horiz-adv-x="426" 
d="M379 396c-15.333 30.667 -37.0029 52.3311 -65.0029 64.998s-58.333 19 -91 19c-22 0 -43.333 -2.83301 -64 -8.5s-39.167 -14.167 -55.5 -25.5s-29.333 -26 -39 -44s-14.5 -39 -14.5 -63c0 -22 4.83301 -40.5 14.5 -55.5s21 -27.167 34 -36.5s26.167 -16.333 39.5 -21
s24 -8 32 -10l64 -15c24.667 -6 45.667 -14.167 63 -24.5s26 -27.166 26 -50.499c0 -13.333 -3.16699 -25 -9.5 -35s-14.666 -18.167 -24.999 -24.5s-22.166 -11 -35.499 -14s-26.666 -4.5 -39.999 -4.5c-28 0 -52.167 6.33301 -72.5 19s-37.166 29.667 -50.499 51l-57 -39
c22 -33.333 48.5 -56.833 79.5 -70.5s64.5 -20.5 100.5 -20.5c22.667 0 45 2.66699 67 8s41.5 13.833 58.5 25.5s30.667 26.667 41 45s15.5 40.166 15.5 65.499c0 33.333 -10.833 61.166 -32.5 83.499s-48.834 37.166 -81.501 44.499l-67 16
c-30.667 7.33301 -53.667 16 -69 26s-23 26 -23 48c0 12.667 2.83301 23.334 8.5 32.001s13.167 15.834 22.5 21.501s19.833 9.83398 31.5 12.501s23.167 4 34.5 4c24 0 44.333 -5.66699 61 -17s30 -26.666 40 -45.999z" />
    <glyph glyph-name="t" unicode="t" horiz-adv-x="332" 
d="M314 468l-135.001 -0.00195312v132h-66v-132h-99v-60h99v-295c0 -26 3.66699 -47 11 -63s16.666 -28.667 27.999 -38s23.833 -15.666 37.5 -18.999s26.834 -5 39.501 -5c34.667 0 64.334 5.66699 89.001 17l-3 61c-10 -5.33301 -21 -9.66602 -33 -12.999
s-23.667 -5 -35 -5c-10 0 -19.167 1.16699 -27.5 3.5s-15.5 6.5 -21.5 12.5s-10.667 14.5 -14 25.5s-5 25.167 -5 42.5v276h135v60z" />
    <glyph glyph-name="u" unicode="u" 
d="M478 0c-1.33301 17.333 -2.49902 35.666 -3.49902 54.999s-1.5 35.333 -1.5 48v365h-66v-240c0 -42.667 -6.66699 -76 -20 -100s-28.5 -42 -45.5 -54s-33.167 -19.333 -48.5 -22s-24.666 -4 -27.999 -4c-48.667 0 -82 13.833 -100 41.5s-27 67.5 -27 119.5v259h-66v-297
c0 -58.667 14.333 -103.834 43 -135.501s73 -47.5 133 -47.5c15.333 0 30.833 2.16699 46.5 6.5s30.5 10.333 44.5 18s26.667 16.834 38 27.501s20.666 22.334 27.999 35.001h2c0 -12.667 0.166992 -25.167 0.5 -37.5s1.16602 -24.833 2.49902 -37.5h68z" />
    <glyph glyph-name="v" unicode="v" horiz-adv-x="482" 
d="M468 468h-75l-149 -394h-2l-149 394h-79l190 -468h74z" />
    <glyph glyph-name="w" unicode="w" horiz-adv-x="722" 
d="M14 468l148 -468h74l124 384h2l124 -384h74l148 468h-78l-108 -380h-2l-125 380h-68l-125 -380h-2l-108 380h-78z" />
    <glyph glyph-name="x" unicode="x" horiz-adv-x="482" 
d="M0 0h84l151 205l157 -205h90l-196 250l163 218h-82l-124 -175l-130 175h-90l170 -218z" />
    <glyph glyph-name="y" unicode="y" horiz-adv-x="482" 
d="M99 468l-83.002 0.000976562l192 -474l-34 -90c-10 -26.667 -21.667 -47.334 -35 -62.001s-31.666 -22 -54.999 -22c-19.333 0 -36 3.66699 -50 11l-7 -64c10 -3.33301 20.167 -5.33301 30.5 -6s20.5 -1 30.5 -1c40.667 0 71.834 10.667 93.501 32s39.5 50 53.5 86
l234 590h-80l-143 -387z" />
    <glyph glyph-name="z" unicode="z" horiz-adv-x="426" 
d="M393 468h-356v-60h260l-274 -360v-48h380v60h-284l274 360v48z" />
    <glyph glyph-name="braceleft" unicode="{" horiz-adv-x="260" 
d="M12 258c22.667 0 43.167 -9.66895 61.5 -29.002s27.5 -46.666 27.5 -81.999v-178c0 -23.333 3 -43 9 -59s14 -28.833 24 -38.5s21.5 -16.667 34.5 -21s26.5 -6.5 40.5 -6.5h64v60h-56c-12 0 -21.5 2.5 -28.5 7.5s-12 11.5 -15 19.5s-4.83301 17 -5.5 27s-1 19.667 -1 29
v172c0 24 -3.5 44.167 -10.5 60.5s-15.333 29.333 -25 39s-19.5 16.667 -29.5 21s-18 6.83301 -24 7.5v2c6 0.666992 14 3.16699 24 7.5s19.833 11.333 29.5 21s18 22.667 25 39s10.5 36.5 10.5 60.5v172c0 9.33301 0.333008 19 1 29s2.5 19 5.5 27s8 14.5 15 19.5
s16.5 7.5 28.5 7.5h56v60h-64c-14 0 -27.5 -2.16699 -40.5 -6.5s-24.5 -11.333 -34.5 -21s-18 -22.5 -24 -38.5s-9 -35.667 -9 -59v-178c0 -35.333 -9.16699 -62.666 -27.5 -81.999s-38.833 -29 -61.5 -29v-60z" />
    <glyph glyph-name="bar" unicode="|" horiz-adv-x="222" 
d="M81 750v-1000h60v1000h-60z" />
    <glyph glyph-name="braceright" unicode="}" horiz-adv-x="260" 
d="M248 318c-22.667 0 -43.167 9.66895 -61.5 29.002s-27.5 46.666 -27.5 81.999v178c0 23.333 -3 43 -9 59s-14 28.833 -24 38.5s-21.5 16.667 -34.5 21s-26.5 6.5 -40.5 6.5h-64v-60h56c12 0 21.5 -2.5 28.5 -7.5s12 -11.5 15 -19.5s4.83301 -17 5.5 -27s1 -19.667 1 -29
v-172c0 -24 3.5 -44.167 10.5 -60.5s15.333 -29.333 25 -39s19.5 -16.667 29.5 -21s18 -6.83301 24 -7.5v-2c-6 -0.666992 -14 -3.16699 -24 -7.5s-19.833 -11.333 -29.5 -21s-18 -22.667 -25 -39s-10.5 -36.5 -10.5 -60.5v-172c0 -9.33301 -0.333008 -19 -1 -29
s-2.5 -19 -5.5 -27s-8 -14.5 -15 -19.5s-16.5 -7.5 -28.5 -7.5h-56v-60h64c14 0 27.5 2.16699 40.5 6.5s24.5 11.333 34.5 21s18 22.5 24 38.5s9 35.667 9 59v178c0 35.333 9.16699 62.666 27.5 81.999s38.833 29 61.5 29v60z" />
    <glyph glyph-name="asciitilde" unicode="~" horiz-adv-x="666" 
d="M535 368l-16.5 -22.5c-6.33301 -8.33301 -13.833 -16.333 -22.5 -24s-18 -14 -28 -19s-20.667 -7.5 -32 -7.5c-18.667 0 -37 5.5 -55 16.5l-52 30.5c-12 6.66699 -22.333 12 -31 16s-16.667 7 -24 9s-14.666 3.16699 -21.999 3.5s-16.333 0.5 -27 0.5
c-16 0 -30.833 -2.83301 -44.5 -8.5s-26 -13 -37 -22s-21 -19 -30 -30s-17.167 -21.833 -24.5 -32.5l42 -40l16.5 22.5c6.33301 8.33301 13.833 16.333 22.5 24s18 14 28 19s20.667 7.5 32 7.5c18.667 0 37 -5.5 55 -16.5l52 -30.5c12 -6.66699 22.333 -12 31 -16
s16.667 -7 24 -9s14.666 -3.16699 21.999 -3.5s16.333 -0.5 27 -0.5c16 0 30.833 2.83301 44.5 8.5s26 13 37 22s21 19 30 30s17.167 21.833 24.5 32.5z" />
    <glyph glyph-name="Adieresis" horiz-adv-x="686" 
d="M162 186h362l78 -186h84l-308 708h-70l-308 -708h84zM343 624l153 -372h-307zM196 822c0 -13.333 4.66699 -25.166 14 -35.499s21.666 -15.5 36.999 -15.5s27.666 5.16699 36.999 15.5s14 22.166 14 35.499s-4.66699 25.166 -14 35.499s-21.666 15.5 -36.999 15.5
s-27.666 -5.16699 -36.999 -15.5s-14 -22.166 -14 -35.499zM388 822c0 -13.333 4.66699 -25.166 14 -35.499s21.666 -15.5 36.999 -15.5s27.666 5.16699 36.999 15.5s14 22.166 14 35.499s-4.66699 25.166 -14 35.499s-21.666 15.5 -36.999 15.5
s-27.666 -5.16699 -36.999 -15.5s-14 -22.166 -14 -35.499z" />
    <glyph glyph-name="Aring" horiz-adv-x="686" 
d="M162 186h362l78 -186h84l-308 708h-70l-308 -708h84zM343 624l153 -372h-307zM439 825c0 13.333 -2.5 25.833 -7.5 37.5s-12 21.834 -21 30.501s-19.167 15.334 -30.5 20.001s-23.666 7 -36.999 7c-12.667 0 -24.834 -2.33301 -36.501 -7s-22 -11.334 -31 -20.001
s-16 -18.834 -21 -30.501s-7.5 -24.167 -7.5 -37.5s2.5 -25.833 7.5 -37.5s12 -21.667 21 -30s19.333 -15 31 -20s23.834 -7.5 36.501 -7.5c13.333 0 25.666 2.5 36.999 7.5s21.5 11.667 30.5 20s16 18.333 21 30s7.5 24.167 7.5 37.5zM403 825
c0 -16.667 -5.83301 -30.667 -17.5 -42s-25.834 -17 -42.501 -17s-30.834 5.66699 -42.501 17s-17.5 25.333 -17.5 42s5.83301 30.667 17.5 42s25.834 17 42.501 17s30.834 -5.66699 42.501 -17s17.5 -25.333 17.5 -42z" />
    <glyph glyph-name="ccedilla" horiz-adv-x="482" 
d="M467 399c-23.333 27.333 -49.6621 47.5029 -78.9951 60.5029s-60 19.833 -92 20.5c-38 0.666992 -72.333 -5.16602 -103 -17.499s-56.834 -29.5 -78.501 -51.5s-38.167 -48.167 -49.5 -78.5s-17 -63.166 -17 -98.499c0 -31.333 4.66699 -60.833 14 -88.5
s22.666 -52.167 39.999 -73.5s38.5 -39 63.5 -53s53.167 -23 84.5 -27l-56 -76l18 -17c6.66699 3.33301 13.667 6 21 8s15.666 3 24.999 3c10 0 18.333 -1.5 25 -4.5s11.667 -6.66699 15 -11s5.66602 -8.83301 6.99902 -13.5s2 -8.33398 2 -11.001
c0 -16.667 -6.66699 -28.334 -20 -35.001s-27.333 -10 -42 -10c-26 0 -50.667 6 -74 18l-16 -36c30 -16 62.333 -24 97 -24c13.333 0 26.833 1.66699 40.5 5s26 8.5 37 15.5s20 16.167 27 27.5s10.5 24.666 10.5 39.999c0 24 -7.83301 42.5 -23.5 55.5
s-33.5 19.5 -53.5 19.5c-7.33301 0 -13.833 -0.666992 -19.5 -2s-11.167 -3 -16.5 -5l-2 1l37 49c0.666992 -0.666992 3 -1 7 -1c32 0.666992 62.667 7.5 92 20.5s55.666 33.167 78.999 60.5l-54 41c-11.333 -17.333 -27.166 -32 -47.499 -44s-43.5 -18 -69.5 -18
c-27.333 -0.666992 -51.833 3.66602 -73.5 12.999s-40.167 22.333 -55.5 39s-27 36.5 -35 59.5s-12 47.833 -12 74.5s4 51.5 12 74.5s19.667 42.833 35 59.5s33.833 29.667 55.5 39s46.167 13.666 73.5 12.999c26 0 49.167 -6 69.5 -18s36.166 -26.667 47.499 -44z" />
    <glyph glyph-name="eacute" 
d="M508 216l-0.00195312 30c0 32 -5 62.167 -15 90.5s-24.5 53 -43.5 74s-42.5 37.833 -70.5 50.5s-59.667 19 -95 19c-33.333 0 -64.333 -6.16699 -93 -18.5s-53.667 -29.5 -75 -51.5s-38 -48 -50 -78s-18 -62.667 -18 -98s6.16699 -68 18.5 -98s29.166 -56 50.499 -78
s46.833 -39.167 76.5 -51.5s61.834 -18.5 96.501 -18.5c38.667 0 74.834 7.66699 108.501 23s64.5 40.666 92.5 75.999l-51 42c-13.333 -21.333 -32.833 -40.166 -58.5 -56.499s-56.167 -24.5 -91.5 -24.5c-23.333 0 -45 4.33301 -65 13s-37.667 20.5 -53 35.5
s-27.666 32.833 -36.999 53.5s-15 42.667 -17 66h390zM119.998 270c0 19.333 4.5 38.001 13.5 56.001s21 34 36 48s32.5 25.167 52.5 33.5s40.667 12.5 62 12.5c48 0 85.333 -13.833 112 -41.5s40 -63.834 40 -108.501h-316zM407.998 708.001h-91l-100 -144h59z" />
    <glyph glyph-name="egrave" 
d="M508 216l-0.00195312 30c0 32 -5 62.167 -15 90.5s-24.5 53 -43.5 74s-42.5 37.833 -70.5 50.5s-59.667 19 -95 19c-33.333 0 -64.333 -6.16699 -93 -18.5s-53.667 -29.5 -75 -51.5s-38 -48 -50 -78s-18 -62.667 -18 -98s6.16699 -68 18.5 -98s29.166 -56 50.499 -78
s46.833 -39.167 76.5 -51.5s61.834 -18.5 96.501 -18.5c38.667 0 74.834 7.66699 108.501 23s64.5 40.666 92.5 75.999l-51 42c-13.333 -21.333 -32.833 -40.166 -58.5 -56.499s-56.167 -24.5 -91.5 -24.5c-23.333 0 -45 4.33301 -65 13s-37.667 20.5 -53 35.5
s-27.666 32.833 -36.999 53.5s-15 42.667 -17 66h390zM119.998 270c0 19.333 4.5 38.001 13.5 56.001s21 34 36 48s32.5 25.167 52.5 33.5s40.667 12.5 62 12.5c48 0 85.333 -13.833 112 -41.5s40 -63.834 40 -108.501h-316zM279.998 564.001h59l-100 144h-91z" />
    <glyph glyph-name="ecircumflex" 
d="M508 216l-0.00195312 30c0 32 -5 62.167 -15 90.5s-24.5 53 -43.5 74s-42.5 37.833 -70.5 50.5s-59.667 19 -95 19c-33.333 0 -64.333 -6.16699 -93 -18.5s-53.667 -29.5 -75 -51.5s-38 -48 -50 -78s-18 -62.667 -18 -98s6.16699 -68 18.5 -98s29.166 -56 50.499 -78
s46.833 -39.167 76.5 -51.5s61.834 -18.5 96.501 -18.5c38.667 0 74.834 7.66699 108.501 23s64.5 40.666 92.5 75.999l-51 42c-13.333 -21.333 -32.833 -40.166 -58.5 -56.499s-56.167 -24.5 -91.5 -24.5c-23.333 0 -45 4.33301 -65 13s-37.667 20.5 -53 35.5
s-27.666 32.833 -36.999 53.5s-15 42.667 -17 66h390zM119.998 270c0 19.333 4.5 38.001 13.5 56.001s21 34 36 48s32.5 25.167 52.5 33.5s40.667 12.5 62 12.5c48 0 85.333 -13.833 112 -41.5s40 -63.834 40 -108.501h-316zM317.998 708.001h-80l-109 -144h66l83 108
l83 -108h66z" />
    <glyph glyph-name="ugrave" 
d="M478 0c-1.33301 17.333 -2.49902 35.666 -3.49902 54.999s-1.5 35.333 -1.5 48v365h-66v-240c0 -42.667 -6.66699 -76 -20 -100s-28.5 -42 -45.5 -54s-33.167 -19.333 -48.5 -22s-24.666 -4 -27.999 -4c-48.667 0 -82 13.833 -100 41.5s-27 67.5 -27 119.5v259h-66v-297
c0 -58.667 14.333 -103.834 43 -135.501s73 -47.5 133 -47.5c15.333 0 30.833 2.16699 46.5 6.5s30.5 10.333 44.5 18s26.667 16.834 38 27.501s20.666 22.334 27.999 35.001h2c0 -12.667 0.166992 -25.167 0.5 -37.5s1.16602 -24.833 2.49902 -37.5h68zM280.001 564h59
l-100 144h-91z" />
    <glyph glyph-name="ucircumflex" 
d="M478 0c-1.33301 17.333 -2.49902 35.666 -3.49902 54.999s-1.5 35.333 -1.5 48v365h-66v-240c0 -42.667 -6.66699 -76 -20 -100s-28.5 -42 -45.5 -54s-33.167 -19.333 -48.5 -22s-24.666 -4 -27.999 -4c-48.667 0 -82 13.833 -100 41.5s-27 67.5 -27 119.5v259h-66v-297
c0 -58.667 14.333 -103.834 43 -135.501s73 -47.5 133 -47.5c15.333 0 30.833 2.16699 46.5 6.5s30.5 10.333 44.5 18s26.667 16.834 38 27.501s20.666 22.334 27.999 35.001h2c0 -12.667 0.166992 -25.167 0.5 -37.5s1.16602 -24.833 2.49902 -37.5h68zM318.001 708h-80
l-109 -144h66l83 108l83 -108h66z" />
    <glyph glyph-name="dagger" unicode="&#xa0;" 
d="M311 708h-66v-204h-204v-60h204v-570h66v570h204v60h-204v204z" />
    <glyph glyph-name="degree" unicode="&#xa1;" horiz-adv-x="400" 
d="M349 571c0 21.333 -3.66699 41.166 -11 59.499s-17.666 34.166 -30.999 47.499s-29.166 23.666 -47.499 30.999s-38.166 11 -59.499 11s-41.166 -3.66699 -59.499 -11s-34.166 -17.666 -47.499 -30.999s-23.666 -29.166 -30.999 -47.499s-11 -38.166 -11 -59.499
s3.66699 -41.166 11 -59.499s17.666 -34.166 30.999 -47.499s29.166 -23.666 47.499 -30.999s38.166 -11 59.499 -11s41.166 3.66699 59.499 11s34.166 17.666 47.499 30.999s23.666 29.166 30.999 47.499s11 38.166 11 59.499zM301 571c0 -14 -2.66699 -27.167 -8 -39.5
s-12.5 -23 -21.5 -32s-19.667 -16.167 -32 -21.5s-25.5 -8 -39.5 -8s-27.167 2.66699 -39.5 8s-23 12.5 -32 21.5s-16.167 19.667 -21.5 32s-8 25.5 -8 39.5s2.66699 27.167 8 39.5s12.5 23 21.5 32s19.667 16.167 32 21.5s25.5 8 39.5 8s27.167 -2.66699 39.5 -8
s23 -12.5 32 -21.5s16.167 -19.667 21.5 -32s8 -25.5 8 -39.5z" />
    <glyph glyph-name="cent" unicode="&#xa2;" 
d="M288 51c-21.333 4 -40.5 11.333 -57.5 22s-31.5 24 -43.5 40s-21.167 34.333 -27.5 55s-9.5 42.667 -9.5 66s3.16699 45.333 9.5 66s15.5 39 27.5 55s26.5 29.333 43.5 40s36.167 18 57.5 22v-366zM336 419c24 -1.33301 45.333 -7.82715 64 -19.4941s33 -25.5 43 -41.5
l54 41c-21.333 25.333 -46 44.666 -74 57.999s-57 20.666 -87 21.999v61h-48v-63c-32.667 -3.33301 -62 -11.833 -88 -25.5s-48 -31.334 -66 -53.001s-31.833 -46.5 -41.5 -74.5s-14.5 -58 -14.5 -90s4.83301 -62 14.5 -90s23.5 -52.833 41.5 -74.5s40 -39.334 66 -53.001
s55.333 -22.167 88 -25.5v-63h48v61c30 1.33301 59 8.66602 87 21.999s52.667 32.666 74 57.999l-54 41c-10 -16 -24.333 -29.833 -43 -41.5s-40 -18.167 -64 -19.5v370z" />
    <glyph glyph-name="sterling" unicode="&#xa3;" 
d="M426 395l-168.002 0.000976562v81c0 17.333 1.33301 36.5 4 57.5s8.83398 41 18.501 60s23.5 34.833 41.5 47.5s42.333 19 73 19c23.333 0 44.333 -4.66699 63 -14s34.667 -21.666 48 -36.999l47 51c-20 21.333 -43.5 36.666 -70.5 45.999s-55.167 14 -84.5 14
c-41.333 0 -75.666 -6.5 -102.999 -19.5s-49 -30.333 -65 -52s-27.333 -46.834 -34 -75.501s-10 -59 -10 -91v-87h-96v-60h96v-275h-102v-60h427v60h-253v275h168v60z" />
    <glyph glyph-name="section" unicode="&#xa4;" 
d="M453 626c-10 26 -30.0039 48.1611 -60.0039 66.4941s-67.333 27.5 -112 27.5c-23.333 0 -45.5 -3.33301 -66.5 -10s-39.5 -16.667 -55.5 -30s-28.833 -29.833 -38.5 -49.5s-14.5 -42.5 -14.5 -68.5c0 -18 2.66699 -33.5 8 -46.5s12 -24.167 20 -33.5
s16.5 -17.166 25.5 -23.499l23.5 -16.5c-30 -13.333 -54.833 -30.666 -74.5 -51.999s-29.5 -48.666 -29.5 -81.999c0 -32 8.5 -58.5 25.5 -79.5s38.5 -37.833 64.5 -50.5l137 -67c21.333 -10.667 38.333 -22.834 51 -36.501s19 -30.834 19 -51.501
c0 -19.333 -3.5 -35.5 -10.5 -48.5s-16.167 -23.5 -27.5 -31.5s-23.833 -13.667 -37.5 -17s-27.167 -5 -40.5 -5c-28 0 -54.167 6.66699 -78.5 20s-42.166 35.666 -53.499 66.999l-66 -32c16 -39.333 41.833 -68.333 77.5 -87s75.834 -28 120.501 -28
c24 0 47.333 3.16699 70 9.5s42.834 16.333 60.501 30s31.667 30.667 42 51s15.5 44.5 15.5 72.5c0 28.667 -5.16699 52.334 -15.5 71.001s-28.166 36.667 -53.499 54c26 14 47 31.667 63 53s24 47.333 24 78c0 34.667 -9.16699 62.834 -27.5 84.501
s-41.5 39.834 -69.5 54.501l-110 56c-22.667 11.333 -41.834 23.833 -57.501 37.5s-23.5 32.834 -23.5 57.501c0 5.33301 1.33301 13 4 23s7.83398 20 15.501 30s18.667 18.667 33 26s32.833 11 55.5 11c15.333 0 29 -2.16699 41 -6.5s22.5 -9.66602 31.5 -15.999
s16.333 -13.166 22 -20.499s10.167 -14.333 13.5 -21zM241.996 403.994l57.002 -26.001c11.333 -5.33301 22.666 -11.166 33.999 -17.499s21.5 -13.833 30.5 -22.5s16.333 -18.5 22 -29.5s8.5 -23.833 8.5 -38.5c0 -10 -2.16699 -19.667 -6.5 -29s-10 -17.833 -17 -25.5
s-14.833 -14.5 -23.5 -20.5s-17.334 -10.667 -26.001 -14l-66 32l-34 16.5c-12 5.66699 -23.167 12.334 -33.5 20.001s-19 16.667 -26 27s-10.5 22.5 -10.5 36.5c0 21.333 7.5 38.666 22.5 51.999s32.167 24 51.5 32z" />
    <glyph glyph-name="bullet" unicode="&#xa5;" horiz-adv-x="500" 
d="M73 354c0 -24.667 4.66699 -47.667 14 -69s22 -40 38 -56s34.667 -28.667 56 -38s44.333 -14 69 -14s47.667 4.66699 69 14s40 22 56 38s28.667 34.667 38 56s14 44.333 14 69s-4.66699 47.667 -14 69s-22 40 -38 56s-34.667 28.667 -56 38s-44.333 14 -69 14
s-47.667 -4.66699 -69 -14s-40 -22 -56 -38s-28.667 -34.667 -38 -56s-14 -44.333 -14 -69z" />
    <glyph glyph-name="paragraph" unicode="&#xa6;" horiz-adv-x="600" 
d="M513 708l-236.999 0.00195312c-70.667 0 -126.334 -18 -167.001 -54s-61 -86.667 -61 -152c0 -26 5.16699 -50.333 15.5 -73s24.833 -42.334 43.5 -59.001s40.667 -29.834 66 -39.501s53.333 -14.5 84 -14.5v-442h66v780h124v-780h66v834z" />
    <glyph glyph-name="germandbls" unicode="&#xa7;" horiz-adv-x="593" 
d="M150 550c0 17.333 2.33301 35.3359 7 54.0029s12.5 35.667 23.5 51s25.5 28 43.5 38s40.333 15 67 15c34 0 63 -11 87 -33s36 -53 36 -93c0 -22.667 -3.83301 -41.834 -11.5 -57.501s-18 -28.334 -31 -38.001s-28.5 -16.667 -46.5 -21s-37 -6.5 -57 -6.5v-60
c62 0 111 -13.833 147 -41.5s54 -72.167 54 -133.5c0 -56 -15.833 -99.333 -47.5 -130s-74.167 -46 -127.5 -46c-8 0 -16 0.333008 -24 1s-16 2 -24 4v-57c9.33301 -3.33301 19 -5.5 29 -6.5s19.667 -1.5 29 -1.5c35.333 0 67.5 5.66699 96.5 17s54 27.166 75 47.499
s37.167 45 48.5 74s17 61.167 17 96.5c0 26 -3.33301 50.833 -10 74.5s-17 45 -31 64s-31.833 34.5 -53.5 46.5s-47.167 19.333 -76.5 22v2c77.333 28 116 81 116 159c0 28 -5 53 -15 75s-23.5 40.5 -40.5 55.5s-37.167 26.5 -60.5 34.5s-48.333 12 -75 12
c-40 0 -73.5 -6.16699 -100.5 -18.5s-48.667 -28.833 -65 -49.5s-28 -44.5 -35 -71.5s-10.5 -55.167 -10.5 -84.5v-544h66v550z" />
    <glyph glyph-name="registered" unicode="&#xa8;" horiz-adv-x="800" 
d="M261 136h60v185h77l118 -185h65l-124 190c32 3.33301 59 14 81 32s33 46.333 33 85c0 43.333 -12.333 74.833 -37 94.5s-63 29.5 -115 29.5h-158v-431zM321 513l93 0.00292969c11.333 0 22.833 -0.666992 34.5 -2s22.167 -4.33301 31.5 -9s16.833 -11.334 22.5 -20.001
s8.5 -20.667 8.5 -36c0 -16.667 -3.16699 -29.834 -9.5 -39.501s-15 -16.834 -26 -21.501s-23.333 -7.5 -37 -8.5s-28.167 -1.5 -43.5 -1.5h-74v138zM25 352.003c0 -52.667 10 -101.5 30 -146.5s47 -84 81 -117s73.833 -59 119.5 -78s93.834 -28.5 144.501 -28.5
c51.333 0 99.666 9.5 144.999 28.5s85 45.167 119 78.5s61 72.833 81 118.5s30 95.167 30 148.5c0 52.667 -10 101.5 -30 146.5s-47 84 -81 117s-73.667 59 -119 78s-93.666 28.5 -144.999 28.5c-50.667 0 -98.834 -9.5 -144.501 -28.5s-85.5 -45.167 -119.5 -78.5
s-61 -72.833 -81 -118.5s-30 -95.167 -30 -148.5zM85 352.003c0 46 8.16699 88.5039 24.5 127.504s38.833 72.667 67.5 101s62 50.666 100 66.999s79 24.5 123 24.5s85 -8 123 -24s71.333 -38.167 100 -66.5s51.167 -61.833 67.5 -100.5s24.5 -80.334 24.5 -125.001
c0 -45.333 -8.16699 -87.5 -24.5 -126.5s-38.833 -72.833 -67.5 -101.5s-62 -51.167 -100 -67.5s-79 -24.5 -123 -24.5s-85 8.16699 -123 24.5s-71.333 38.666 -100 66.999s-51.167 61.666 -67.5 99.999s-24.5 79.833 -24.5 124.5z" />
    <glyph glyph-name="copyright" unicode="&#xa9;" horiz-adv-x="800" 
d="M545 282c-5.33301 -28.667 -19.667 -52.8311 -43 -72.498s-52.333 -29.5 -87 -29.5c-24.667 0 -47 4.83301 -67 14.5s-37.167 22.667 -51.5 39s-25.333 35.166 -33 56.499s-11.5 43.333 -11.5 66c0 24 3.66699 46.333 11 67s17.833 38.667 31.5 54s30.5 27.5 50.5 36.5
s42.667 13.5 68 13.5c34.667 0 64 -9.33301 88 -28s38.667 -42 44 -70h56c-3.33301 25.333 -10.666 47.5 -21.999 66.5s-25.333 34.833 -42 47.5s-35.667 22.167 -57 28.5s-44 9.5 -68 9.5c-34 0 -64.667 -5.66699 -92 -17s-50.5 -27 -69.5 -47s-33.5 -43.833 -43.5 -71.5
s-15 -58.167 -15 -91.5c0 -32.667 5.33301 -62.834 16 -90.501s25.667 -51.667 45 -72s42.666 -36.333 69.999 -48s58 -17.5 92 -17.5c46 0 85.833 14 119.5 42s56.167 66 67.5 114h-57zM24.999 352.003c0 -52.667 10 -101.5 30 -146.5s47 -84 81 -117s73.833 -59 119.5 -78
s93.834 -28.5 144.501 -28.5c51.333 0 99.666 9.5 144.999 28.5s85 45.167 119 78.5s61 72.833 81 118.5s30 95.167 30 148.5c0 52.667 -10 101.5 -30 146.5s-47 84 -81 117s-73.667 59 -119 78s-93.666 28.5 -144.999 28.5c-50.667 0 -98.834 -9.5 -144.501 -28.5
s-85.5 -45.167 -119.5 -78.5s-61 -72.833 -81 -118.5s-30 -95.167 -30 -148.5zM84.999 352.003c0 46 8.16699 88.5039 24.5 127.504s38.833 72.667 67.5 101s62 50.666 100 66.999s79 24.5 123 24.5s85 -8 123 -24s71.333 -38.167 100 -66.5s51.167 -61.833 67.5 -100.5
s24.5 -80.334 24.5 -125.001c0 -45.333 -8.16699 -87.5 -24.5 -126.5s-38.833 -72.833 -67.5 -101.5s-62 -51.167 -100 -67.5s-79 -24.5 -123 -24.5s-85 8.16699 -123 24.5s-71.333 38.666 -100 66.999s-51.167 61.666 -67.5 99.999s-24.5 79.833 -24.5 124.5z" />
    <glyph glyph-name="trademark" unicode="&#xaa;" horiz-adv-x="1000" 
d="M401 708h-329v-54h136v-358h60v358h133v54zM928 708h-90l-129 -316l-129 316h-93v-412h60v346h2l139 -346h39l139 346h2v-346h60v412z" />
    <glyph glyph-name="acute" unicode="&#xab;" horiz-adv-x="240" 
d="M250 708h-91l-100 -144h59z" />
    <glyph glyph-name="dieresis" unicode="&#xac;" horiz-adv-x="240" 
d="M-27 647c0 -13.333 4.66699 -25.166 14 -35.499s21.666 -15.5 36.999 -15.5s27.666 5.16699 36.999 15.5s14 22.166 14 35.499s-4.66699 25.166 -14 35.499s-21.666 15.5 -36.999 15.5s-27.666 -5.16699 -36.999 -15.5s-14 -22.166 -14 -35.499zM165 647
c0 -13.333 4.66699 -25.166 14 -35.499s21.666 -15.5 36.999 -15.5s27.666 5.16699 36.999 15.5s14 22.166 14 35.499s-4.66699 25.166 -14 35.499s-21.666 15.5 -36.999 15.5s-27.666 -5.16699 -36.999 -15.5s-14 -22.166 -14 -35.499z" />
    <glyph glyph-name="AE" unicode="&#xae;" horiz-adv-x="944" 
d="M583 642h294v66h-416l-461 -708h85l128 198h298v-198h378v66h-306v269h276v66h-276v241zM255 264l245 378h11v-378h-256z" />
    <glyph glyph-name="Oslash" unicode="&#xaf;" horiz-adv-x="834" 
d="M766 692l-37 33.999l-76 -81c-32 26 -67.833 46 -107.5 60s-82.5 21 -128.5 21c-52.667 0 -101.5 -9.33301 -146.5 -28s-84 -44.5 -117 -77.5s-58.833 -72.167 -77.5 -117.5s-28 -95 -28 -149c0 -51.333 8.33301 -98.666 25 -141.999s40.334 -81.333 71.001 -114l-76 -82
l37 -34l76 81c31.333 -25.333 67 -45.166 107 -59.499s83 -21.5 129 -21.5c52.667 0 101.5 9.33301 146.5 28s84 44.5 117 77.5s58.833 72.167 77.5 117.5s28 95 28 149c0 51.333 -8.33301 98.666 -25 141.999s-40.334 81.333 -71.001 114zM640 555.999
c22 -28 38.833 -59.167 50.5 -93.5s17.5 -70.5 17.5 -108.5c0 -40.667 -6.66699 -79.5 -20 -116.5s-32.5 -69.5 -57.5 -97.5s-55.5 -50.333 -91.5 -67s-76.667 -25 -122 -25c-38.667 0 -73.667 5.83301 -105 17.5s-59 28.167 -83 49.5zM194 151.999
c-22 27.333 -38.833 58.333 -50.5 93s-17.5 71 -17.5 109c0 40.667 6.66699 79.5 20 116.5s32.5 69.5 57.5 97.5s55.5 50.333 91.5 67s76.667 25 122 25c38.667 0 73.667 -5.83301 105 -17.5s59 -28.167 83 -49.5z" />
    <glyph glyph-name="plusminus" unicode="&#xb1;" horiz-adv-x="666" 
d="M78 347h225v-151h60v151h225v60h-225v156h-60v-156h-225v-60zM78 48h510v60h-510v-60z" />
    <glyph glyph-name="yen" unicode="&#xb4;" 
d="M79 223v-54h163v-169h72v169h163v54h-163v77l7 12h156v54h-123l204 342h-85l-195 -340l-195 340h-85l205 -342h-124v-54h156l7 -12v-77h-163z" />
    <glyph glyph-name="mu" unicode="&#xb5;" 
d="M72 -228l66.001 -0.000976562v245c27.333 -19.333 64 -29 110 -29c15.333 0 30.833 2.33301 46.5 7s30.5 11 44.5 19s26.667 17.333 38 28s20.666 22 27.999 34h2v-76h71c-1.33301 17.333 -2.5 34.5 -3.5 51.5s-1.5 34.167 -1.5 51.5v365h-66v-240
c0 -28.667 -3.66699 -54.167 -11 -76.5s-17.333 -41.166 -30 -56.499s-27.667 -27 -45 -35s-36 -12 -56 -12c-48 0 -81.167 12.5 -99.5 37.5s-27.5 66.167 -27.5 123.5v259h-66v-696z" />
    <glyph glyph-name="ordfeminine" unicode="&#xbb;" horiz-adv-x="337" 
d="M136 424c23.333 0 43.332 3.66895 59.999 11.002s29.667 17.666 39 30.999h1l3 -36h54c-1.33301 8.66699 -2.5 18.5 -3.5 29.5s-1.5 22.167 -1.5 33.5v137c0 8 -1.83301 17.333 -5.5 28s-10.334 20.5 -20.001 29.5s-22.5 16.667 -38.5 23s-36.667 9.5 -62 9.5
c-21.333 0 -42.166 -2.66699 -62.499 -8s-39.166 -16.333 -56.499 -33l32 -37c12 9.33301 25.333 16.666 40 21.999s31 8 49 8c42.667 0 64 -19 64 -57v-8h-22c-32.667 0 -60.334 -2.33301 -83.001 -7s-40.667 -11.334 -54 -20.001s-23 -19.167 -29 -31.5
s-9 -26.166 -9 -41.499c0 -14 3 -26.167 9 -36.5s13.833 -19 23.5 -26s20.834 -12.167 33.501 -15.5s25.667 -5 39 -5zM227.999 559.002c0 -8.66699 -0.834961 -18.166 -2.50195 -28.499s-5.16699 -19.833 -10.5 -28.5s-13.166 -15.834 -23.499 -21.501
s-24.166 -8.5 -41.499 -8.5c-14.667 0 -28.167 3 -40.5 9s-18.5 15.667 -18.5 29c0 12 4.83301 21.333 14.5 28s21.167 11.5 34.5 14.5s27 4.83301 41 5.5s25.333 1 34 1h13z" />
    <glyph glyph-name="ordmasculine" unicode="&#xbc;" horiz-adv-x="385" 
d="M354 571c0 21.333 -4 41.166 -12 59.499s-19.167 34.166 -33.5 47.499s-31.333 23.666 -51 30.999s-41.5 11 -65.5 11c-23.333 0 -44.833 -3.66699 -64.5 -11s-36.667 -17.666 -51 -30.999s-25.5 -29.166 -33.5 -47.499s-12 -38.166 -12 -59.499c0 -20.667 4 -40 12 -58
s19.167 -33.667 33.5 -47s31.333 -23.666 51 -30.999s41.167 -11 64.5 -11c24 0 45.833 3.66699 65.5 11s36.667 17.666 51 30.999s25.5 29 33.5 47s12 37.333 12 58zM294 571c0 -13.333 -2.5 -26 -7.5 -38s-12 -22.5 -21 -31.5s-19.667 -16.167 -32 -21.5
s-26.166 -8 -41.499 -8c-30 0 -54.333 9.66699 -73 29s-28 42.666 -28 69.999c0 28 9.33301 51.833 28 71.5s43 29.5 73 29.5c15.333 0 29.166 -2.66699 41.499 -8s23 -12.666 32 -21.999s16 -20 21 -32s7.5 -25 7.5 -39z" />
    <glyph glyph-name="ae" unicode="&#xbe;" horiz-adv-x="852" 
d="M804 216l0.00292969 30.0049c0 33.333 -4.5 64.166 -13.5 92.499s-22.5 53 -40.5 74s-40.167 37.5 -66.5 49.5s-56.833 18 -91.5 18c-34 0 -66.5 -8 -97.5 -24s-54.167 -38 -69.5 -66c-11.333 25.333 -31 46.666 -59 63.999s-60 26 -96 26c-38 0 -72.833 -6 -104.5 -18
s-58.834 -28.667 -81.501 -50l41 -48c39.333 37.333 86.666 56 141.999 56c8.66699 0 19.667 -1.66699 33 -5s26.333 -9.5 39 -18.5s23.667 -21.333 33 -37s14.333 -35.834 15 -60.501v-29h-111c-26 0 -52.5 -1.66699 -79.5 -5s-51.5 -10.166 -73.5 -20.499s-40 -25 -54 -44
s-21 -44.167 -21 -75.5c0 -22.667 4.5 -42.5 13.5 -59.5s21 -31.333 36 -43s32.167 -20.334 51.5 -26.001s39.333 -8.5 60 -8.5c49.333 0 90.5 8.16699 123.5 24.5s61.167 44.5 84.5 84.5c17.333 -38 42 -65.667 74 -83s65.667 -26 101 -26
c36.667 0 72.167 7.66699 106.5 23s64.166 39.333 89.499 72l-52 41c-7.33301 -10 -15.333 -19.5 -24 -28.5s-18.667 -17 -30 -24s-24.5 -12.667 -39.5 -17s-32.5 -6.5 -52.5 -6.5c-21.333 0 -40.5 4.33301 -57.5 13s-31.333 20.167 -43 34.5s-20.667 31.166 -27 50.499
s-9.5 39.666 -9.5 60.999v9h351zM387.003 216.005v-9c0 -23.333 -3.66699 -44.666 -11 -63.999s-17.833 -36 -31.5 -50s-30.167 -25 -49.5 -33s-41 -12 -65 -12c-13.333 0 -26.5 1.5 -39.5 4.5s-24.833 8 -35.5 15s-19.167 16 -25.5 27s-9.5 24.167 -9.5 39.5
c0 16 4.16699 29.167 12.5 39.5s18.833 18.666 31.5 24.999s26.667 10.833 42 13.5s30 4 44 4h137zM453.003 270.005c0 21.333 3.66504 41.166 10.998 59.499s17.333 34.166 30 47.499s27.5 23.833 44.5 31.5s35.5 11.5 55.5 11.5c22 0 41.833 -3.66699 59.5 -11
s32.834 -17.666 45.501 -30.999s22.334 -29.166 29.001 -47.499s10 -38.5 10 -60.5h-285z" />
    <glyph glyph-name="oslash" unicode="&#xbf;" horiz-adv-x="593" 
d="M439 348c22.667 -32.667 34.001 -70.665 34.001 -113.998c0 -26 -4.16699 -50.333 -12.5 -73s-20.166 -42.334 -35.499 -59.001s-33.833 -29.834 -55.5 -39.501s-46.167 -14.5 -73.5 -14.5c-22.667 0 -43.334 3.33301 -62.001 10s-35.334 16 -50.001 28zM154.001 120.002
c-22.667 30.667 -34 68.665 -34 113.998c0 26 4.16699 50.333 12.5 73s20 42.334 35 59.001s33.5 29.834 55.5 39.501s46.333 14.5 73 14.5c45.333 0 83 -13 113 -39zM553.001 465l-32 30.998l-66 -68c-21.333 16.667 -45.333 29.5 -72 38.5s-55.667 13.5 -87 13.5
c-36 0 -69.167 -6.16699 -99.5 -18.5s-56.5 -29.5 -78.5 -51.5s-39.167 -48 -51.5 -78s-18.5 -62.667 -18.5 -98c0 -32 5 -61.833 15 -89.5s24.333 -52.167 43 -73.5l-66 -68l32 -31l67 68c20 -16 43.167 -28.667 69.5 -38s55.5 -14 87.5 -14
c36.667 0 70.167 6.16699 100.5 18.5s56.5 29.5 78.5 51.5s39.167 48 51.5 78s18.5 62.667 18.5 98c0 32.667 -5.16699 62.834 -15.5 90.501s-24.5 51.834 -42.5 72.501z" />
    <glyph glyph-name="questiondown" unicode="&#xc0;" horiz-adv-x="482" 
d="M206 237c0 -24 -4.00098 -44.334 -12.001 -61.001s-18 -31.5 -30 -44.5s-25 -25.167 -39 -36.5s-27 -24.166 -39 -38.499s-22 -31.166 -30 -50.499s-12 -43 -12 -71s4.83301 -53 14.5 -75s23 -40.333 40 -55s37.167 -25.834 60.5 -33.501s48.333 -11.5 75 -11.5
c26 0 50.333 3.66699 73 11s42.834 18.166 60.501 32.499s32.334 31.833 44.001 52.5s19.5 44 23.5 70l-75 9c-6 -32.667 -20.167 -59 -42.5 -79s-50.5 -30 -84.5 -30c-34.667 0 -62.834 10.667 -84.501 32s-32.5 49 -32.5 83c0 19.333 4 36.833 12 52.5
s17.833 30.334 29.5 44.001s24.5 26.5 38.5 38.5s27 24.5 39 37.5s22.167 27 30.5 42s12.5 31.5 12.5 49.5v83h-72v-51zM181.999 431.999c0 -14 5 -26.5 15 -37.5s23 -16.5 39 -16.5s29 5.5 39 16.5s15 23.5 15 37.5s-5 26.5 -15 37.5s-23 16.5 -39 16.5s-29 -5.5 -39 -16.5
s-15 -23.5 -15 -37.5z" />
    <glyph glyph-name="exclamdown" unicode="&#xc1;" horiz-adv-x="278" 
d="M103 -228h72v516h-72v-516zM85 432c0 -14 5 -26.5 15 -37.5s23 -16.5 39 -16.5s29 5.5 39 16.5s15 23.5 15 37.5s-5 26.5 -15 37.5s-23 16.5 -39 16.5s-29 -5.5 -39 -16.5s-15 -23.5 -15 -37.5z" />
    <glyph glyph-name="logicalnot" unicode="&#xc2;" horiz-adv-x="666" 
d="M588 408h-510v-60h450v-218h60v278z" />
    <glyph glyph-name="florin" unicode="&#xc4;" 
d="M423 419l-108.002 0.00195312l22 125c2 10.667 4.66699 22.667 8 36s8.33301 26 15 38s15.334 22 26.001 30s24.334 12 41.001 12c10 0 19.833 -1.5 29.5 -4.5s18.834 -7.16699 27.501 -12.5l34 48c-28.667 19.333 -60.334 29 -95.001 29
c-24.667 0 -45.834 -4.33301 -63.501 -13s-32.5 -20.167 -44.5 -34.5s-21.333 -31 -28 -50s-12 -38.833 -16 -59.5l-27 -144h-119v-54h108l-63 -338c-2 -12.667 -4.83301 -25.334 -8.5 -38.001s-8.66699 -24 -15 -34s-14.5 -18.167 -24.5 -24.5s-22.667 -9.5 -38 -9.5
c-8.66699 0 -17.667 1 -27 3s-17.666 5 -24.999 9l-32 -48c11.333 -8.66699 24.166 -14.834 38.499 -18.501s28.833 -5.5 43.5 -5.5c27.333 0 50 4.5 68 13.5s32.833 20.833 44.5 35.5s20.834 31 27.501 49s11.667 36 15 54l67 352h119v54z" />
    <glyph glyph-name="guillemotleft" unicode="&#xc7;" horiz-adv-x="482" 
d="M239 416l-47 33l-140 -209l140 -209l47 33l-115 176zM421 416l-47 33l-140 -209l140 -209l47 33l-115 176z" />
    <glyph glyph-name="guillemotright" unicode="&#xc8;" horiz-adv-x="482" 
d="M243 64l47 -33l140 209l-140 209l-47 -33l115 -176zM61 64l47 -33l140 209l-140 209l-47 -33l115 -176z" />
    <glyph glyph-name="ellipsis" unicode="&#xc9;" horiz-adv-x="1000" 
d="M221 48c0 14 -5 26.5 -15 37.5s-23 16.5 -39 16.5s-29 -5.5 -39 -16.5s-15 -23.5 -15 -37.5s5 -26.5 15 -37.5s23 -16.5 39 -16.5s29 5.5 39 16.5s15 23.5 15 37.5zM554 48c0 14 -5 26.5 -15 37.5s-23 16.5 -39 16.5s-29 -5.5 -39 -16.5s-15 -23.5 -15 -37.5
s5 -26.5 15 -37.5s23 -16.5 39 -16.5s29 5.5 39 16.5s15 23.5 15 37.5zM887 48c0 14 -5 26.5 -15 37.5s-23 16.5 -39 16.5s-29 -5.5 -39 -16.5s-15 -23.5 -15 -37.5s5 -26.5 15 -37.5s23 -16.5 39 -16.5s29 5.5 39 16.5s15 23.5 15 37.5z" />
    <glyph glyph-name="Agrave" unicode="&#xcb;" horiz-adv-x="686" 
d="M162 186h362l78 -186h84l-308 708h-70l-308 -708h84zM343 624l153 -372h-307zM345 739h59l-100 144h-91z" />
    <glyph glyph-name="Atilde" unicode="&#xcc;" horiz-adv-x="686" 
d="M162 186h362l78 -186h84l-308 708h-70l-308 -708h84zM343 624l153 -372h-307zM224 751c3.33301 12.667 8.50391 24.1641 15.5039 34.4971s18.167 15.5 33.5 15.5c10.667 0 21.667 -2.33301 33 -7s22.666 -10 33.999 -16l36.5 -15.5c12.333 -5 24.5 -7.5 36.5 -7.5
c15.333 0 28.166 3 38.499 9s19.166 13.833 26.499 23.5s13.166 20.834 17.499 33.501s7.5 25.334 9.5 38.001h-43c-3.33301 -12.667 -8.5 -24.167 -15.5 -34.5s-18.167 -15.5 -33.5 -15.5c-10 0 -20.667 2.5 -32 7.5l-35 15.5c-12 6 -24.167 11.333 -36.5 16
s-24.5 7 -36.5 7c-14.667 0 -27.334 -3 -38.001 -9s-19.667 -13.833 -27 -23.5s-13.166 -20.667 -17.499 -33s-7.5 -25.166 -9.5 -38.499h43z" />
    <glyph glyph-name="Otilde" unicode="&#xcd;" horiz-adv-x="834" 
d="M786 354c0 54 -9.33301 103.667 -28 149s-44.5 84.5 -77.5 117.5s-72 58.833 -117 77.5s-93.833 28 -146.5 28s-101.5 -9.33301 -146.5 -28s-84 -44.5 -117 -77.5s-58.833 -72.167 -77.5 -117.5s-28 -95 -28 -149s9.33301 -103.667 28 -149s44.5 -84.5 77.5 -117.5
s72 -58.833 117 -77.5s93.833 -28 146.5 -28s101.5 9.33301 146.5 28s84 44.5 117 77.5s58.833 72.167 77.5 117.5s28 95 28 149zM708 354c0 -40.667 -6.66699 -79.5 -20 -116.5s-32.5 -69.5 -57.5 -97.5s-55.5 -50.333 -91.5 -67s-76.667 -25 -122 -25s-86 8.33301 -122 25
s-66.5 39 -91.5 67s-44.167 60.5 -57.5 97.5s-20 75.833 -20 116.5s6.66699 79.5 20 116.5s32.5 69.5 57.5 97.5s55.5 50.333 91.5 67s76.667 25 122 25s86 -8.33301 122 -25s66.5 -39 91.5 -67s44.167 -60.5 57.5 -97.5s20 -75.833 20 -116.5zM298 751
c3.33301 12.667 8.50391 24.1641 15.5039 34.4971s18.167 15.5 33.5 15.5c10.667 0 21.667 -2.33301 33 -7s22.666 -10 33.999 -16l36.5 -15.5c12.333 -5 24.5 -7.5 36.5 -7.5c15.333 0 28.166 3 38.499 9s19.166 13.833 26.499 23.5s13.166 20.834 17.499 33.501
s7.5 25.334 9.5 38.001h-43c-3.33301 -12.667 -8.5 -24.167 -15.5 -34.5s-18.167 -15.5 -33.5 -15.5c-10 0 -20.667 2.5 -32 7.5l-35 15.5c-12 6 -24.167 11.333 -36.5 16s-24.5 7 -36.5 7c-14.667 0 -27.334 -3 -38.001 -9s-19.667 -13.833 -27 -23.5
s-13.166 -20.667 -17.499 -33s-7.5 -25.166 -9.5 -38.499h43z" />
    <glyph glyph-name="OE" unicode="&#xce;" horiz-adv-x="944" 
d="M592 642l293.997 -0.00195312v66h-437c-47.333 0 -94.166 -7.16699 -140.499 -21.5s-87.666 -36.166 -123.999 -65.499s-65.666 -66.166 -87.999 -110.499s-33.5 -96.166 -33.5 -155.499c0 -38 6.83301 -78 20.5 -120s36 -80.333 67 -115s71.167 -63.334 120.5 -86.001
s109.333 -34 180 -34h447v66h-306v269h282v66h-282v241zM519.997 65.998l-71.002 0.00390625c-43.333 0 -81 5.16699 -113 15.5s-59.5 23.666 -82.5 39.999s-41.667 35 -56 56s-25.666 42 -33.999 63s-14.166 41.333 -17.499 61s-5 36.5 -5 50.5
c0 47.333 8.16699 89.166 24.5 125.499s38.833 66.666 67.5 90.999s62.667 42.666 102 54.999s82 18.5 128 18.5h57v-576z" />
    <glyph glyph-name="oe" unicode="&#xcf;" horiz-adv-x="922" 
d="M874 216l0.000976562 30.0029c0 33.333 -4.5 64.166 -13.5 92.499s-22.5 53 -40.5 74s-40.167 37.5 -66.5 49.5s-56.833 18 -91.5 18c-42 0 -76.833 -9 -104.5 -27s-52.5 -44 -74.5 -78c-22 37.333 -51 64.166 -87 80.499s-73 24.5 -111 24.5
c-33.333 0 -64.5 -6.16699 -93.5 -18.5s-54.167 -29.5 -75.5 -51.5s-38 -48 -50 -78s-18 -62.667 -18 -98s5.66699 -68 17 -98s27.333 -56 48 -78s45.5 -39.167 74.5 -51.5s61.5 -18.5 97.5 -18.5c14.667 0 30.667 2 48 6s34.666 10.167 51.999 18.5s34.333 19.333 51 33
s31.334 29.834 44.001 48.501c18.667 -36 44.167 -62.667 76.5 -80s67.5 -26 105.5 -26c36.667 0 72.167 7.66699 106.5 23s64.166 39.333 89.499 72l-52 41c-7.33301 -10 -15.333 -19.5 -24 -28.5s-18.667 -17 -30 -24s-24.5 -12.667 -39.5 -17s-32.5 -6.5 -52.5 -6.5
c-21.333 0 -40.5 4.33301 -57.5 13s-31.333 20.167 -43 34.5s-20.667 31.166 -27 50.499s-9.5 39.666 -9.5 60.999v9h351zM451.001 234.003c0 -24.667 -3.5 -48.3379 -10.5 -71.0049s-17.5 -42.5 -31.5 -59.5s-31.333 -30.5 -52 -40.5s-44.667 -15 -72 -15
c-24 0 -46.167 4.83301 -66.5 14.5s-37.833 22.834 -52.5 39.501s-26 36.334 -34 59.001s-12 47 -12 73s4 50.333 12 73s19.333 42.334 34 59.001s32.167 29.834 52.5 39.501s42.5 14.5 66.5 14.5c27.333 0 51.333 -5 72 -15s38 -23.5 52 -40.5s24.5 -36.667 31.5 -59
s10.5 -46.166 10.5 -71.499zM523.001 269.999c0 21.333 3.66504 41.166 10.998 59.499s17.333 34.166 30 47.499s27.5 23.833 44.5 31.5s35.5 11.5 55.5 11.5c22 0 41.833 -3.66699 59.5 -11s32.834 -17.666 45.501 -30.999s22.334 -29.166 29.001 -47.499
s10 -38.5 10 -60.5h-285z" />
    <glyph glyph-name="endash" unicode="&#xd0;" horiz-adv-x="500" 
d="M500 273h-500v-66h500v66z" />
    <glyph glyph-name="emdash" unicode="&#xd1;" horiz-adv-x="1000" 
d="M1000 273h-1000v-66h1000v66z" />
    <glyph glyph-name="quotedblleft" unicode="&#xd2;" horiz-adv-x="519" 
d="M95 473h81l67 235h-67zM276 473h81l67 235h-67z" />
    <glyph glyph-name="quotedblright" unicode="&#xd3;" horiz-adv-x="519" 
d="M424 708h-81l-67 -235h67zM243 708h-81l-67 -235h67z" />
    <glyph glyph-name="quoteleft" unicode="&#xd4;" horiz-adv-x="260" 
d="M56 473h81l67 235h-67z" />
    <glyph glyph-name="quoteright" unicode="&#xd5;" horiz-adv-x="260" 
d="M204 708h-81l-67 -235h67z" />
    <glyph glyph-name="divide" unicode="&#xd6;" horiz-adv-x="666" 
d="M588 333h-510v-60h510v60zM387 465c0 14 -5 26.5 -15 37.5s-23 16.5 -39 16.5s-29 -5.5 -39 -16.5s-15 -23.5 -15 -37.5s5 -26.5 15 -37.5s23 -16.5 39 -16.5s29 5.5 39 16.5s15 23.5 15 37.5zM387 141c0 14 -5 26.5 -15 37.5s-23 16.5 -39 16.5s-29 -5.5 -39 -16.5
s-15 -23.5 -15 -37.5s5 -26.5 15 -37.5s23 -16.5 39 -16.5s29 5.5 39 16.5s15 23.5 15 37.5z" />
    <glyph glyph-name="ydieresis" unicode="&#xd8;" horiz-adv-x="482" 
d="M99 468l-83.002 0.000976562l192 -474l-34 -90c-10 -26.667 -21.667 -47.334 -35 -62.001s-31.666 -22 -54.999 -22c-19.333 0 -36 3.66699 -50 11l-7 -64c10 -3.33301 20.167 -5.33301 30.5 -6s20.5 -1 30.5 -1c40.667 0 71.834 10.667 93.501 32s39.5 50 53.5 86
l234 590h-80l-143 -387zM93.998 647.001c0 -13.333 4.66699 -25.166 14 -35.499s21.666 -15.5 36.999 -15.5s27.666 5.16699 36.999 15.5s14 22.166 14 35.499s-4.66699 25.166 -14 35.499s-21.666 15.5 -36.999 15.5s-27.666 -5.16699 -36.999 -15.5
s-14 -22.166 -14 -35.499zM285.998 647.001c0 -13.333 4.66699 -25.166 14 -35.499s21.666 -15.5 36.999 -15.5s27.666 5.16699 36.999 15.5s14 22.166 14 35.499s-4.66699 25.166 -14 35.499s-21.666 15.5 -36.999 15.5s-27.666 -5.16699 -36.999 -15.5
s-14 -22.166 -14 -35.499z" />
    <glyph glyph-name="Ydieresis" unicode="&#xd9;" horiz-adv-x="574" 
d="M323 305l265 403h-90l-211 -334l-211 334h-90l265 -403v-305h72v305zM140 822c0 -13.333 4.66699 -25.166 14 -35.499s21.666 -15.5 36.999 -15.5s27.666 5.16699 36.999 15.5s14 22.166 14 35.499s-4.66699 25.166 -14 35.499s-21.666 15.5 -36.999 15.5
s-27.666 -5.16699 -36.999 -15.5s-14 -22.166 -14 -35.499zM332 822c0 -13.333 4.66699 -25.166 14 -35.499s21.666 -15.5 36.999 -15.5s27.666 5.16699 36.999 15.5s14 22.166 14 35.499s-4.66699 25.166 -14 35.499s-21.666 15.5 -36.999 15.5
s-27.666 -5.16699 -36.999 -15.5s-14 -22.166 -14 -35.499z" />
    <glyph glyph-name="fraction" unicode="&#xda;" horiz-adv-x="168" 
d="M-115 -32l450 741l-51 31l-451 -740z" />
    <glyph glyph-name="currency" unicode="&#xdb;" 
d="M525 559l-44 44l-53 -53c-22 17.333 -45.833 30.5 -71.5 39.5s-51.834 13.5 -78.501 13.5s-52.834 -4.5 -78.501 -13.5s-49.5 -22.167 -71.5 -39.5l-53 53l-44 -44l53 -53c-17.333 -22 -30.666 -45.833 -39.999 -71.5s-13.666 -52.5 -12.999 -80.5
c-0.666992 -28 3.66602 -54.833 12.999 -80.5s22.666 -49.5 39.999 -71.5l-53 -53l44 -44l53 53c22 -17.333 45.833 -30.5 71.5 -39.5s51.834 -13.5 78.501 -13.5s52.834 4.5 78.501 13.5s49.5 22.167 71.5 39.5l53 -53l44 44l-53 53c17.333 22 30.666 45.833 39.999 71.5
s13.666 52.5 12.999 80.5c0.666992 28 -3.66602 54.833 -12.999 80.5s-22.666 49.5 -39.999 71.5zM97 354c0 26 4.66699 50.5 14 73.5s22.333 43 39 60s36 30.5 58 40.5s45.667 15 71 15s48.833 -5 70.5 -15s40.667 -23.5 57 -40.5s29.166 -37 38.499 -60s14 -47.5 14 -73.5
s-4.66699 -50.5 -14 -73.5s-22.166 -43 -38.499 -60s-35.333 -30.5 -57 -40.5s-45.167 -15 -70.5 -15s-49 5 -71 15s-41.333 23.5 -58 40.5s-29.667 37 -39 60s-14 47.5 -14 73.5z" />
    <glyph glyph-name="guilsinglleft" unicode="&#xdc;" horiz-adv-x="315" 
d="M131 240l115 176l-47 33l-140 -209l140 -209l47 33z" />
    <glyph glyph-name="guilsinglright" unicode="&#xdd;" horiz-adv-x="315" 
d="M184 240l-115 -176l47 -33l140 209l-140 209l-47 -33z" />
    <glyph glyph-name="fi" unicode="&#xde;" horiz-adv-x="537" 
d="M290 468l-111.001 0.000976562v120c0 17.333 1 33.166 3 47.499s6 27 12 38s14.667 19.5 26 25.5s26 9 44 9c8.66699 0 17.334 -0.666992 26.001 -2s17 -3 25 -5l12 60c-9.33301 2 -18.833 3.66699 -28.5 5s-19.167 2 -28.5 2c-47.333 0 -85.333 -13.167 -114 -39.5
s-43 -70.5 -43 -132.5v-128h-99v-60h99v-408h66v408h111v60zM449.999 468.001h-66v-468h66v468zM464.999 648.001c0 14 -5 25.5 -15 34.5s-21 13.5 -33 13.5s-23 -4.5 -33 -13.5s-15 -20.5 -15 -34.5s5 -25.5 15 -34.5s21 -13.5 33 -13.5s23 4.5 33 13.5s15 20.5 15 34.5z
" />
    <glyph glyph-name="fl" unicode="&#xdf;" horiz-adv-x="537" 
d="M290 468l-111.001 0.000976562v120c0 17.333 1 33.166 3 47.499s6 27 12 38s14.667 19.5 26 25.5s26 9 44 9c8.66699 0 17.334 -0.666992 26.001 -2s17 -3 25 -5l12 60c-9.33301 2 -18.833 3.66699 -28.5 5s-19.167 2 -28.5 2c-47.333 0 -85.333 -13.167 -114 -39.5
s-43 -70.5 -43 -132.5v-128h-99v-60h99v-408h66v408h111v60zM449.999 756.001h-66v-756h66v756z" />
    <glyph glyph-name="daggerdbl" unicode="&#xe0;" 
d="M311 708h-66v-192h-195v-60h195v-330h-195v-60h195v-192h66v192h195v60h-195v330h195v60h-195v192z" />
    <glyph glyph-name="periodcentered" unicode="&#xe1;" horiz-adv-x="278" 
d="M193 314c0 14 -5 26.5 -15 37.5s-23 16.5 -39 16.5s-29 -5.5 -39 -16.5s-15 -23.5 -15 -37.5s5 -26.5 15 -37.5s23 -16.5 39 -16.5s29 5.5 39 16.5s15 23.5 15 37.5z" />
    <glyph glyph-name="quotesinglbase" unicode="&#xe2;" horiz-adv-x="260" 
d="M204 95h-81l-67 -235h67z" />
    <glyph glyph-name="quotedblbase" unicode="&#xe3;" horiz-adv-x="519" 
d="M424 95h-81l-67 -235h67zM243 95h-81l-67 -235h67z" />
    <glyph glyph-name="perthousand" unicode="&#xe4;" horiz-adv-x="1000" 
d="M331 566c0 21.333 -4 41.333 -12 60s-18.833 35 -32.5 49s-29.834 25 -48.501 33s-38.667 12 -60 12s-41.333 -4 -60 -12s-34.834 -19 -48.501 -33s-24.5 -30.333 -32.5 -49s-12 -38.667 -12 -60c0 -20.667 4 -40.334 12 -59.001s18.833 -35 32.5 -49
s29.834 -25.167 48.501 -33.5s38.667 -12.5 60 -12.5s41.333 4.16699 60 12.5s34.834 19.5 48.501 33.5s24.5 30.333 32.5 49s12 38.334 12 59.001zM277 566c0 -28 -9.5 -51.667 -28.5 -71s-42.5 -29 -70.5 -29s-51.5 9.66699 -70.5 29s-28.5 43 -28.5 71
s9.5 51.667 28.5 71s42.5 29 70.5 29s51.5 -9.66699 70.5 -29s28.5 -43 28.5 -71zM625 142c0 21.333 -4 41.333 -12 60s-18.833 35 -32.5 49s-29.834 25 -48.501 33s-38.667 12 -60 12s-41.333 -4 -60 -12s-34.834 -19 -48.501 -33s-24.5 -30.333 -32.5 -49
s-12 -38.667 -12 -60c0 -20.667 4 -40.334 12 -59.001s18.833 -35 32.5 -49s29.834 -25.167 48.501 -33.5s38.667 -12.5 60 -12.5s41.333 4.16699 60 12.5s34.834 19.5 48.501 33.5s24.5 30.333 32.5 49s12 38.334 12 59.001zM571 142c0 -28 -9.5 -51.667 -28.5 -71
s-42.5 -29 -70.5 -29s-51.5 9.66699 -70.5 29s-28.5 43 -28.5 71s9.5 51.667 28.5 71s42.5 29 70.5 29s51.5 -9.66699 70.5 -29s28.5 -43 28.5 -71zM975 142c0 21.333 -4 41.333 -12 60s-18.833 35 -32.5 49s-29.834 25 -48.501 33s-38.667 12 -60 12s-41.333 -4 -60 -12
s-34.834 -19 -48.501 -33s-24.5 -30.333 -32.5 -49s-12 -38.667 -12 -60c0 -20.667 4 -40.334 12 -59.001s18.833 -35 32.5 -49s29.834 -25.167 48.501 -33.5s38.667 -12.5 60 -12.5s41.333 4.16699 60 12.5s34.834 19.5 48.501 33.5s24.5 30.333 32.5 49
s12 38.334 12 59.001zM921 142c0 -28 -9.5 -51.667 -28.5 -71s-42.5 -29 -70.5 -29s-51.5 9.66699 -70.5 29s-28.5 43 -28.5 71s9.5 51.667 28.5 71s42.5 29 70.5 29s51.5 -9.66699 70.5 -29s28.5 -43 28.5 -71zM575 712l-51 27l-451 -743l52 -27z" />
    <glyph glyph-name="Acircumflex" unicode="&#xe5;" horiz-adv-x="686" 
d="M162 186h362l78 -186h84l-308 708h-70l-308 -708h84zM343 624l153 -372h-307zM383 883h-80l-109 -144h66l83 108l83 -108h66z" />
    <glyph glyph-name="Ecircumflex" unicode="&#xe6;" horiz-adv-x="593" 
d="M168 335h343v66h-343v241h367v66h-439v-708h451v66h-379v269zM337 883h-80l-109 -144h66l83 108l83 -108h66z" />
    <glyph glyph-name="Aacute" unicode="&#xe7;" horiz-adv-x="686" 
d="M162 186h362l78 -186h84l-308 708h-70l-308 -708h84zM343 624l153 -372h-307zM473 883h-91l-100 -144h59z" />
    <glyph glyph-name="Edieresis" unicode="&#xe8;" horiz-adv-x="593" 
d="M168 335h343v66h-343v241h367v66h-439v-708h451v66h-379v269zM150 822c0 -13.333 4.66699 -25.166 14 -35.499s21.666 -15.5 36.999 -15.5s27.666 5.16699 36.999 15.5s14 22.166 14 35.499s-4.66699 25.166 -14 35.499s-21.666 15.5 -36.999 15.5
s-27.666 -5.16699 -36.999 -15.5s-14 -22.166 -14 -35.499zM342 822c0 -13.333 4.66699 -25.166 14 -35.499s21.666 -15.5 36.999 -15.5s27.666 5.16699 36.999 15.5s14 22.166 14 35.499s-4.66699 25.166 -14 35.499s-21.666 15.5 -36.999 15.5
s-27.666 -5.16699 -36.999 -15.5s-14 -22.166 -14 -35.499z" />
    <glyph glyph-name="Egrave" unicode="&#xe9;" horiz-adv-x="593" 
d="M168 335h343v66h-343v241h367v66h-439v-708h451v66h-379v269zM299 739h59l-100 144h-91z" />
    <glyph glyph-name="Iacute" unicode="&#xea;" horiz-adv-x="264" 
d="M168 708h-72v-708h72v708zM262 883h-91l-100 -144h59z" />
    <glyph glyph-name="Icircumflex" unicode="&#xeb;" horiz-adv-x="264" 
d="M168 708h-72v-708h72v708zM172 883h-80l-109 -144h66l83 108l83 -108h66z" />
    <glyph glyph-name="Idieresis" unicode="&#xec;" horiz-adv-x="264" 
d="M168 708h-72v-708h72v708zM-15 822c0 -13.333 4.66699 -25.166 14 -35.499s21.666 -15.5 36.999 -15.5s27.666 5.16699 36.999 15.5s14 22.166 14 35.499s-4.66699 25.166 -14 35.499s-21.666 15.5 -36.999 15.5s-27.666 -5.16699 -36.999 -15.5s-14 -22.166 -14 -35.499
zM177 822c0 -13.333 4.66699 -25.166 14 -35.499s21.666 -15.5 36.999 -15.5s27.666 5.16699 36.999 15.5s14 22.166 14 35.499s-4.66699 25.166 -14 35.499s-21.666 15.5 -36.999 15.5s-27.666 -5.16699 -36.999 -15.5s-14 -22.166 -14 -35.499z" />
    <glyph glyph-name="Igrave" unicode="&#xed;" horiz-adv-x="264" 
d="M168 708h-72v-708h72v708zM134 739h59l-100 144h-91z" />
    <glyph glyph-name="Oacute" unicode="&#xee;" horiz-adv-x="834" 
d="M786 354c0 54 -9.33301 103.667 -28 149s-44.5 84.5 -77.5 117.5s-72 58.833 -117 77.5s-93.833 28 -146.5 28s-101.5 -9.33301 -146.5 -28s-84 -44.5 -117 -77.5s-58.833 -72.167 -77.5 -117.5s-28 -95 -28 -149s9.33301 -103.667 28 -149s44.5 -84.5 77.5 -117.5
s72 -58.833 117 -77.5s93.833 -28 146.5 -28s101.5 9.33301 146.5 28s84 44.5 117 77.5s58.833 72.167 77.5 117.5s28 95 28 149zM708 354c0 -40.667 -6.66699 -79.5 -20 -116.5s-32.5 -69.5 -57.5 -97.5s-55.5 -50.333 -91.5 -67s-76.667 -25 -122 -25s-86 8.33301 -122 25
s-66.5 39 -91.5 67s-44.167 60.5 -57.5 97.5s-20 75.833 -20 116.5s6.66699 79.5 20 116.5s32.5 69.5 57.5 97.5s55.5 50.333 91.5 67s76.667 25 122 25s86 -8.33301 122 -25s66.5 -39 91.5 -67s44.167 -60.5 57.5 -97.5s20 -75.833 20 -116.5zM547 883h-91l-100 -144h59z
" />
    <glyph glyph-name="Ocircumflex" unicode="&#xef;" horiz-adv-x="834" 
d="M786 354c0 54 -9.33301 103.667 -28 149s-44.5 84.5 -77.5 117.5s-72 58.833 -117 77.5s-93.833 28 -146.5 28s-101.5 -9.33301 -146.5 -28s-84 -44.5 -117 -77.5s-58.833 -72.167 -77.5 -117.5s-28 -95 -28 -149s9.33301 -103.667 28 -149s44.5 -84.5 77.5 -117.5
s72 -58.833 117 -77.5s93.833 -28 146.5 -28s101.5 9.33301 146.5 28s84 44.5 117 77.5s58.833 72.167 77.5 117.5s28 95 28 149zM708 354c0 -40.667 -6.66699 -79.5 -20 -116.5s-32.5 -69.5 -57.5 -97.5s-55.5 -50.333 -91.5 -67s-76.667 -25 -122 -25s-86 8.33301 -122 25
s-66.5 39 -91.5 67s-44.167 60.5 -57.5 97.5s-20 75.833 -20 116.5s6.66699 79.5 20 116.5s32.5 69.5 57.5 97.5s55.5 50.333 91.5 67s76.667 25 122 25s86 -8.33301 122 -25s66.5 -39 91.5 -67s44.167 -60.5 57.5 -97.5s20 -75.833 20 -116.5zM457 883h-80l-109 -144h66
l83 108l83 -108h66z" />
    <glyph glyph-name="Ograve" unicode="&#xf1;" horiz-adv-x="834" 
d="M786 354c0 54 -9.33301 103.667 -28 149s-44.5 84.5 -77.5 117.5s-72 58.833 -117 77.5s-93.833 28 -146.5 28s-101.5 -9.33301 -146.5 -28s-84 -44.5 -117 -77.5s-58.833 -72.167 -77.5 -117.5s-28 -95 -28 -149s9.33301 -103.667 28 -149s44.5 -84.5 77.5 -117.5
s72 -58.833 117 -77.5s93.833 -28 146.5 -28s101.5 9.33301 146.5 28s84 44.5 117 77.5s58.833 72.167 77.5 117.5s28 95 28 149zM708 354c0 -40.667 -6.66699 -79.5 -20 -116.5s-32.5 -69.5 -57.5 -97.5s-55.5 -50.333 -91.5 -67s-76.667 -25 -122 -25s-86 8.33301 -122 25
s-66.5 39 -91.5 67s-44.167 60.5 -57.5 97.5s-20 75.833 -20 116.5s6.66699 79.5 20 116.5s32.5 69.5 57.5 97.5s55.5 50.333 91.5 67s76.667 25 122 25s86 -8.33301 122 -25s66.5 -39 91.5 -67s44.167 -60.5 57.5 -97.5s20 -75.833 20 -116.5zM419 739h59l-100 144h-91z
" />
    <glyph glyph-name="Uacute" unicode="&#xf2;" horiz-adv-x="686" 
d="M602 708h-72.001v-436c0 -50.667 -7.16699 -91 -21.5 -121s-31.5 -52.5 -51.5 -67.5s-40.667 -24.667 -62 -29s-38.666 -6.5 -51.999 -6.5s-30.666 2.16699 -51.999 6.5s-42 14 -62 29s-37.167 37.5 -51.5 67.5s-21.5 70.333 -21.5 121v436h-72v-444
c0 -29.333 3.5 -60.5 10.5 -93.5s20.167 -63.5 39.5 -91.5s45.833 -51.167 79.5 -69.5s76.834 -27.5 129.501 -27.5c53.333 0 96.666 9.16699 129.999 27.5s59.666 41.5 78.999 69.5s32.5 58.5 39.5 91.5s10.5 64.167 10.5 93.5v444zM472.999 883h-91l-100 -144h59z" />
    <glyph glyph-name="Ucircumflex" unicode="&#xf3;" horiz-adv-x="686" 
d="M602 708h-72.001v-436c0 -50.667 -7.16699 -91 -21.5 -121s-31.5 -52.5 -51.5 -67.5s-40.667 -24.667 -62 -29s-38.666 -6.5 -51.999 -6.5s-30.666 2.16699 -51.999 6.5s-42 14 -62 29s-37.167 37.5 -51.5 67.5s-21.5 70.333 -21.5 121v436h-72v-444
c0 -29.333 3.5 -60.5 10.5 -93.5s20.167 -63.5 39.5 -91.5s45.833 -51.167 79.5 -69.5s76.834 -27.5 129.501 -27.5c53.333 0 96.666 9.16699 129.999 27.5s59.666 41.5 78.999 69.5s32.5 58.5 39.5 91.5s10.5 64.167 10.5 93.5v444zM382.999 883h-80l-109 -144h66l83 108
l83 -108h66z" />
    <glyph glyph-name="Ugrave" unicode="&#xf4;" horiz-adv-x="686" 
d="M602 708h-72.001v-436c0 -50.667 -7.16699 -91 -21.5 -121s-31.5 -52.5 -51.5 -67.5s-40.667 -24.667 -62 -29s-38.666 -6.5 -51.999 -6.5s-30.666 2.16699 -51.999 6.5s-42 14 -62 29s-37.167 37.5 -51.5 67.5s-21.5 70.333 -21.5 121v436h-72v-444
c0 -29.333 3.5 -60.5 10.5 -93.5s20.167 -63.5 39.5 -91.5s45.833 -51.167 79.5 -69.5s76.834 -27.5 129.501 -27.5c53.333 0 96.666 9.16699 129.999 27.5s59.666 41.5 78.999 69.5s32.5 58.5 39.5 91.5s10.5 64.167 10.5 93.5v444zM344.999 739h59l-100 144h-91z" />
    <glyph glyph-name="dotlessi" unicode="&#xf5;" horiz-adv-x="240" 
d="M153 468h-66v-468h66v468z" />
    <glyph glyph-name="circumflex" unicode="&#xf6;" horiz-adv-x="240" 
d="M160 708h-80l-109 -144h66l83 108l83 -108h66z" />
    <glyph glyph-name="tilde" unicode="&#xf7;" horiz-adv-x="240" 
d="M1 576c3.33301 12.667 8.50391 24.1641 15.5039 34.4971s18.167 15.5 33.5 15.5c10.667 0 21.667 -2.33301 33 -7s22.666 -10 33.999 -16l36.5 -15.5c12.333 -5 24.5 -7.5 36.5 -7.5c15.333 0 28.166 3 38.499 9s19.166 13.833 26.499 23.5s13.166 20.834 17.499 33.501
s7.5 25.334 9.5 38.001h-43c-3.33301 -12.667 -8.5 -24.167 -15.5 -34.5s-18.167 -15.5 -33.5 -15.5c-10 0 -20.667 2.5 -32 7.5l-35 15.5c-12 6 -24.167 11.333 -36.5 16s-24.5 7 -36.5 7c-14.667 0 -27.334 -3 -38.001 -9s-19.667 -13.833 -27 -23.5
s-13.166 -20.667 -17.499 -33s-7.5 -25.166 -9.5 -38.499h43z" />
    <glyph glyph-name="macron" unicode="&#xf8;" horiz-adv-x="240" 
d="M255 654h-270v-54h270v54z" />
    <glyph glyph-name="breve" unicode="&#xf9;" horiz-adv-x="240" 
d="M223 708c-4.66699 -26 -16.6689 -45.5 -36.002 -58.5s-41.666 -19.5 -66.999 -19.5s-47.666 6.5 -66.999 19.5s-31.333 32.5 -36 58.5h-44c2.66699 -42 17.5 -74.5 44.5 -97.5s61.167 -34.5 102.5 -34.5s75.5 11.5 102.5 34.5s41.833 55.5 44.5 97.5h-44z" />
    <glyph glyph-name="dotaccent" unicode="&#xfa;" horiz-adv-x="240" 
d="M69 657c0 -13.333 4.66699 -25.166 14 -35.499s21.666 -15.5 36.999 -15.5s27.666 5.16699 36.999 15.5s14 22.166 14 35.499s-4.66699 25.166 -14 35.499s-21.666 15.5 -36.999 15.5s-27.666 -5.16699 -36.999 -15.5s-14 -22.166 -14 -35.499z" />
    <glyph glyph-name="ring" unicode="&#xfb;" horiz-adv-x="240" 
d="M216 650c0 13.333 -2.5 25.833 -7.5 37.5s-12 21.834 -21 30.501s-19.167 15.334 -30.5 20.001s-23.666 7 -36.999 7c-12.667 0 -24.834 -2.33301 -36.501 -7s-22 -11.334 -31 -20.001s-16 -18.834 -21 -30.501s-7.5 -24.167 -7.5 -37.5s2.5 -25.833 7.5 -37.5
s12 -21.667 21 -30s19.333 -15 31 -20s23.834 -7.5 36.501 -7.5c13.333 0 25.666 2.5 36.999 7.5s21.5 11.667 30.5 20s16 18.333 21 30s7.5 24.167 7.5 37.5zM180 650c0 -16.667 -5.83301 -30.667 -17.5 -42s-25.834 -17 -42.501 -17s-30.834 5.66699 -42.501 17
s-17.5 25.333 -17.5 42s5.83301 30.667 17.5 42s25.834 17 42.501 17s30.834 -5.66699 42.501 -17s17.5 -25.333 17.5 -42z" />
    <glyph glyph-name="cedilla" unicode="&#xfc;" horiz-adv-x="240" 
d="M156 0l-40.998 0.00292969l-62 -84l18 -17c6.66699 3.33301 13.667 6 21 8s15.666 3 24.999 3c10 0 18.333 -1.5 25 -4.5s11.667 -6.66699 15 -11s5.66602 -8.83301 6.99902 -13.5s2 -8.33398 2 -11.001c0 -16.667 -6.66699 -28.334 -20 -35.001s-27.333 -10 -42 -10
c-26 0 -50.667 6 -74 18l-16 -36c30 -16 62.333 -24 97 -24c13.333 0 26.833 1.66699 40.5 5s26 8.5 37 15.5s20 16.167 27 27.5s10.5 24.666 10.5 39.999c0 24 -7.83301 42.5 -23.5 55.5s-33.5 19.5 -53.5 19.5c-7.33301 0 -13.833 -0.666992 -19.5 -2s-11.167 -3 -16.5 -5
l-2 1z" />
    <glyph glyph-name="hungarumlaut" unicode="&#xfd;" horiz-adv-x="240" 
d="M116 708h-91l-101 -144h59zM316 708h-91l-100 -144h59z" />
    <glyph glyph-name="ogonek" unicode="&#xfe;" horiz-adv-x="240" 
d="M191 -141c-6.66699 -7.33301 -14.499 -12.8311 -23.499 -16.498s-18.167 -5.5 -27.5 -5.5c-13.333 0 -25 4.5 -35 13.5s-15 20.5 -15 34.5c0 19.333 6.66699 38.166 20 56.499s32.333 39.833 57 64.5h-48c-10 -8 -20.333 -17.167 -31 -27.5s-20.334 -21.333 -29.001 -33
s-15.667 -24 -21 -37s-8 -26.5 -8 -40.5c0 -12.667 2.5 -24.167 7.5 -34.5s11.667 -19.333 20 -27s17.833 -13.5 28.5 -17.5s22 -6 34 -6c16.667 0 33 3.16699 49 9.5s29.667 15.166 41 26.499z" />
    <glyph glyph-name="caron" unicode="&#xff;" horiz-adv-x="240" 
d="M269 708h-66l-83 -108l-83 108h-66l109 -144h80z" />
    <glyph glyph-name="aring" unicode="&#x152;" horiz-adv-x="519" 
d="M339 287c-28 0 -58.832 -1.33496 -92.499 -4.00195s-65.334 -9.33398 -95.001 -20.001s-54.334 -26.834 -74.001 -48.501s-29.5 -51.5 -29.5 -89.5c0 -22.667 4.5 -42.5 13.5 -59.5s21 -31.333 36 -43s32.167 -20.334 51.5 -26.001s39.333 -8.5 60 -8.5
c38 0 70.167 6.83301 96.5 20.5s49.166 36.167 68.499 67.5h2c0 -12.667 0.5 -25.667 1.5 -39s2.5 -25.666 4.5 -36.999h64c-2 12.667 -3.83301 28.834 -5.5 48.501s-2.5 38.5 -2.5 56.5v209c0 28.667 -4.66699 53.334 -14 74.001s-21.666 37.834 -36.999 51.501
s-33.333 23.834 -54 30.501s-42.667 10 -66 10c-88 0 -154 -22.667 -198 -68l40 -47c40.667 36.667 88.334 55 143.001 55c80 0 120 -40.333 120 -121v-12h-33zM372.001 232.998v-33.999c0 -20.667 -2.83301 -40.167 -8.5 -58.5s-14.5 -34.333 -26.5 -48
s-26.833 -24.5 -44.5 -32.5s-38.5 -12 -62.5 -12c-13.333 0 -26.5 1.5 -39.5 4.5s-24.833 8 -35.5 15s-19.167 16 -25.5 27s-9.5 24.167 -9.5 39.5c0 16 3.83301 29.333 11.5 40s17.667 19.667 30 27s26.333 13.166 42 17.499s31.667 7.5 48 9.5s32 3.33301 47 4
s28.167 1 39.5 1h34zM356.001 649.999c0 13.333 -2.5 25.833 -7.5 37.5s-12 21.834 -21 30.501s-19.167 15.334 -30.5 20.001s-23.666 7 -36.999 7c-12.667 0 -24.834 -2.33301 -36.501 -7s-22 -11.334 -31 -20.001s-16 -18.834 -21 -30.501s-7.5 -24.167 -7.5 -37.5
s2.5 -25.833 7.5 -37.5s12 -21.667 21 -30s19.333 -15 31 -20s23.834 -7.5 36.501 -7.5c13.333 0 25.666 2.5 36.999 7.5s21.5 11.667 30.5 20s16 18.333 21 30s7.5 24.167 7.5 37.5zM320.001 649.999c0 -16.667 -5.83301 -30.667 -17.5 -42s-25.834 -17 -42.501 -17
s-30.834 5.66699 -42.501 17s-17.5 25.333 -17.5 42s5.83301 30.667 17.5 42s25.834 17 42.501 17s30.834 -5.66699 42.501 -17s17.5 -25.333 17.5 -42z" />
    <glyph glyph-name="uacute" unicode="&#x153;" 
d="M478 0c-1.33301 17.333 -2.49902 35.666 -3.49902 54.999s-1.5 35.333 -1.5 48v365h-66v-240c0 -42.667 -6.66699 -76 -20 -100s-28.5 -42 -45.5 -54s-33.167 -19.333 -48.5 -22s-24.666 -4 -27.999 -4c-48.667 0 -82 13.833 -100 41.5s-27 67.5 -27 119.5v259h-66v-297
c0 -58.667 14.333 -103.834 43 -135.501s73 -47.5 133 -47.5c15.333 0 30.833 2.16699 46.5 6.5s30.5 10.333 44.5 18s26.667 16.834 38 27.501s20.666 22.334 27.999 35.001h2c0 -12.667 0.166992 -25.167 0.5 -37.5s1.16602 -24.833 2.49902 -37.5h68zM408.001 708h-91
l-100 -144h59z" />
    <glyph glyph-name="adieresis" unicode="&#x160;" horiz-adv-x="519" 
d="M339 287c-28 0 -58.832 -1.33496 -92.499 -4.00195s-65.334 -9.33398 -95.001 -20.001s-54.334 -26.834 -74.001 -48.501s-29.5 -51.5 -29.5 -89.5c0 -22.667 4.5 -42.5 13.5 -59.5s21 -31.333 36 -43s32.167 -20.334 51.5 -26.001s39.333 -8.5 60 -8.5
c38 0 70.167 6.83301 96.5 20.5s49.166 36.167 68.499 67.5h2c0 -12.667 0.5 -25.667 1.5 -39s2.5 -25.666 4.5 -36.999h64c-2 12.667 -3.83301 28.834 -5.5 48.501s-2.5 38.5 -2.5 56.5v209c0 28.667 -4.66699 53.334 -14 74.001s-21.666 37.834 -36.999 51.501
s-33.333 23.834 -54 30.501s-42.667 10 -66 10c-88 0 -154 -22.667 -198 -68l40 -47c40.667 36.667 88.334 55 143.001 55c80 0 120 -40.333 120 -121v-12h-33zM372.001 232.998v-33.999c0 -20.667 -2.83301 -40.167 -8.5 -58.5s-14.5 -34.333 -26.5 -48
s-26.833 -24.5 -44.5 -32.5s-38.5 -12 -62.5 -12c-13.333 0 -26.5 1.5 -39.5 4.5s-24.833 8 -35.5 15s-19.167 16 -25.5 27s-9.5 24.167 -9.5 39.5c0 16 3.83301 29.333 11.5 40s17.667 19.667 30 27s26.333 13.166 42 17.499s31.667 7.5 48 9.5s32 3.33301 47 4
s28.167 1 39.5 1h34zM113.001 646.999c0 -13.333 4.66699 -25.166 14 -35.499s21.666 -15.5 36.999 -15.5s27.666 5.16699 36.999 15.5s14 22.166 14 35.499s-4.66699 25.166 -14 35.499s-21.666 15.5 -36.999 15.5s-27.666 -5.16699 -36.999 -15.5s-14 -22.166 -14 -35.499
zM305.001 646.999c0 -13.333 4.66699 -25.166 14 -35.499s21.666 -15.5 36.999 -15.5s27.666 5.16699 36.999 15.5s14 22.166 14 35.499s-4.66699 25.166 -14 35.499s-21.666 15.5 -36.999 15.5s-27.666 -5.16699 -36.999 -15.5s-14 -22.166 -14 -35.499z" />
    <glyph glyph-name="odieresis" unicode="&#x161;" horiz-adv-x="593" 
d="M545 234c0 35.333 -6.16699 68 -18.5 98s-29.5 56 -51.5 78s-48.167 39.167 -78.5 51.5s-63.833 18.5 -100.5 18.5c-36 0 -69.167 -6.16699 -99.5 -18.5s-56.5 -29.5 -78.5 -51.5s-39.167 -48 -51.5 -78s-18.5 -62.667 -18.5 -98s6.16699 -68 18.5 -98s29.5 -56 51.5 -78
s48.167 -39.167 78.5 -51.5s63.5 -18.5 99.5 -18.5c36.667 0 70.167 6.16699 100.5 18.5s56.5 29.5 78.5 51.5s39.167 48 51.5 78s18.5 62.667 18.5 98zM473 234c0 -26 -4.16699 -50.333 -12.5 -73s-20.166 -42.334 -35.499 -59.001s-33.833 -29.834 -55.5 -39.501
s-46.167 -14.5 -73.5 -14.5c-26.667 0 -51 4.83301 -73 14.5s-40.5 22.834 -55.5 39.501s-26.667 36.334 -35 59.001s-12.5 47 -12.5 73s4.16699 50.333 12.5 73s20 42.334 35 59.001s33.5 29.834 55.5 39.501s46.333 14.5 73 14.5c27.333 0 51.833 -4.83301 73.5 -14.5
s40.167 -22.834 55.5 -39.501s27.166 -36.334 35.499 -59.001s12.5 -47 12.5 -73zM150 647c0 -13.333 4.66699 -25.166 14 -35.499s21.666 -15.5 36.999 -15.5s27.666 5.16699 36.999 15.5s14 22.166 14 35.499s-4.66699 25.166 -14 35.499s-21.666 15.5 -36.999 15.5
s-27.666 -5.16699 -36.999 -15.5s-14 -22.166 -14 -35.499zM342 647c0 -13.333 4.66699 -25.166 14 -35.499s21.666 -15.5 36.999 -15.5s27.666 5.16699 36.999 15.5s14 22.166 14 35.499s-4.66699 25.166 -14 35.499s-21.666 15.5 -36.999 15.5
s-27.666 -5.16699 -36.999 -15.5s-14 -22.166 -14 -35.499z" />
    <glyph glyph-name="udieresis" unicode="&#x178;" 
d="M478 0c-1.33301 17.333 -2.49902 35.666 -3.49902 54.999s-1.5 35.333 -1.5 48v365h-66v-240c0 -42.667 -6.66699 -76 -20 -100s-28.5 -42 -45.5 -54s-33.167 -19.333 -48.5 -22s-24.666 -4 -27.999 -4c-48.667 0 -82 13.833 -100 41.5s-27 67.5 -27 119.5v259h-66v-297
c0 -58.667 14.333 -103.834 43 -135.501s73 -47.5 133 -47.5c15.333 0 30.833 2.16699 46.5 6.5s30.5 10.333 44.5 18s26.667 16.834 38 27.501s20.666 22.334 27.999 35.001h2c0 -12.667 0.166992 -25.167 0.5 -37.5s1.16602 -24.833 2.49902 -37.5h68zM131.001 647
c0 -13.333 4.66699 -25.166 14 -35.499s21.666 -15.5 36.999 -15.5s27.666 5.16699 36.999 15.5s14 22.166 14 35.499s-4.66699 25.166 -14 35.499s-21.666 15.5 -36.999 15.5s-27.666 -5.16699 -36.999 -15.5s-14 -22.166 -14 -35.499zM323.001 647
c0 -13.333 4.66699 -25.166 14 -35.499s21.666 -15.5 36.999 -15.5s27.666 5.16699 36.999 15.5s14 22.166 14 35.499s-4.66699 25.166 -14 35.499s-21.666 15.5 -36.999 15.5s-27.666 -5.16699 -36.999 -15.5s-14 -22.166 -14 -35.499z" />
    <glyph glyph-name="Eacute" unicode="&#x192;" horiz-adv-x="593" 
d="M168 335h343v66h-343v241h367v66h-439v-708h451v66h-379v269zM427 883h-91l-100 -144h59z" />
    <glyph glyph-name="agrave" unicode="&#x2c6;" horiz-adv-x="519" 
d="M339 287c-28 0 -58.832 -1.33496 -92.499 -4.00195s-65.334 -9.33398 -95.001 -20.001s-54.334 -26.834 -74.001 -48.501s-29.5 -51.5 -29.5 -89.5c0 -22.667 4.5 -42.5 13.5 -59.5s21 -31.333 36 -43s32.167 -20.334 51.5 -26.001s39.333 -8.5 60 -8.5
c38 0 70.167 6.83301 96.5 20.5s49.166 36.167 68.499 67.5h2c0 -12.667 0.5 -25.667 1.5 -39s2.5 -25.666 4.5 -36.999h64c-2 12.667 -3.83301 28.834 -5.5 48.501s-2.5 38.5 -2.5 56.5v209c0 28.667 -4.66699 53.334 -14 74.001s-21.666 37.834 -36.999 51.501
s-33.333 23.834 -54 30.501s-42.667 10 -66 10c-88 0 -154 -22.667 -198 -68l40 -47c40.667 36.667 88.334 55 143.001 55c80 0 120 -40.333 120 -121v-12h-33zM372.001 232.998v-33.999c0 -20.667 -2.83301 -40.167 -8.5 -58.5s-14.5 -34.333 -26.5 -48
s-26.833 -24.5 -44.5 -32.5s-38.5 -12 -62.5 -12c-13.333 0 -26.5 1.5 -39.5 4.5s-24.833 8 -35.5 15s-19.167 16 -25.5 27s-9.5 24.167 -9.5 39.5c0 16 3.83301 29.333 11.5 40s17.667 19.667 30 27s26.333 13.166 42 17.499s31.667 7.5 48 9.5s32 3.33301 47 4
s28.167 1 39.5 1h34zM262.001 563.999h59l-100 144h-91z" />
    <glyph glyph-name="ograve" unicode="&#x2dc;" horiz-adv-x="593" 
d="M545 234c0 35.333 -6.16699 68 -18.5 98s-29.5 56 -51.5 78s-48.167 39.167 -78.5 51.5s-63.833 18.5 -100.5 18.5c-36 0 -69.167 -6.16699 -99.5 -18.5s-56.5 -29.5 -78.5 -51.5s-39.167 -48 -51.5 -78s-18.5 -62.667 -18.5 -98s6.16699 -68 18.5 -98s29.5 -56 51.5 -78
s48.167 -39.167 78.5 -51.5s63.5 -18.5 99.5 -18.5c36.667 0 70.167 6.16699 100.5 18.5s56.5 29.5 78.5 51.5s39.167 48 51.5 78s18.5 62.667 18.5 98zM473 234c0 -26 -4.16699 -50.333 -12.5 -73s-20.166 -42.334 -35.499 -59.001s-33.833 -29.834 -55.5 -39.501
s-46.167 -14.5 -73.5 -14.5c-26.667 0 -51 4.83301 -73 14.5s-40.5 22.834 -55.5 39.501s-26.667 36.334 -35 59.001s-12.5 47 -12.5 73s4.16699 50.333 12.5 73s20 42.334 35 59.001s33.5 29.834 55.5 39.501s46.333 14.5 73 14.5c27.333 0 51.833 -4.83301 73.5 -14.5
s40.167 -22.834 55.5 -39.501s27.166 -36.334 35.499 -59.001s12.5 -47 12.5 -73zM299 564h59l-100 144h-91z" />
    <glyph glyph-name="ntilde" unicode="&#x2013;" 
d="M67 468c1.33301 -17.333 2.49902 -35.666 3.49902 -54.999s1.5 -35.333 1.5 -48v-365h66v240c0 42.667 6.66699 76 20 100s28.5 42 45.5 54s33.167 19.333 48.5 22s24.666 4 27.999 4c24.667 0 45.167 -3.5 61.5 -10.5s29.333 -17.333 39 -31s16.5 -30.5 20.5 -50.5
s6 -43 6 -69v-259h66v297c0 58.667 -14.333 103.834 -43 135.501s-73 47.5 -133 47.5c-15.333 0 -30.833 -2.16699 -46.5 -6.5s-30.5 -10.333 -44.5 -18s-26.667 -16.834 -38 -27.501s-20.666 -22.334 -27.999 -35.001h-2c0 12.667 -0.166992 25.167 -0.5 37.5
s-1.16602 24.833 -2.49902 37.5h-68zM158.999 576c3.33301 12.667 8.50391 24.1641 15.5039 34.4971s18.167 15.5 33.5 15.5c10.667 0 21.667 -2.33301 33 -7s22.666 -10 33.999 -16l36.5 -15.5c12.333 -5 24.5 -7.5 36.5 -7.5c15.333 0 28.166 3 38.499 9
s19.166 13.833 26.499 23.5s13.166 20.834 17.499 33.501s7.5 25.334 9.5 38.001h-43c-3.33301 -12.667 -8.5 -24.167 -15.5 -34.5s-18.167 -15.5 -33.5 -15.5c-10 0 -20.667 2.5 -32 7.5l-35 15.5c-12 6 -24.167 11.333 -36.5 16s-24.5 7 -36.5 7
c-14.667 0 -27.334 -3 -38.001 -9s-19.667 -13.833 -27 -23.5s-13.166 -20.667 -17.499 -33s-7.5 -25.166 -9.5 -38.499h43z" />
    <glyph glyph-name="oacute" unicode="&#x2014;" horiz-adv-x="593" 
d="M545 234c0 35.333 -6.16699 68 -18.5 98s-29.5 56 -51.5 78s-48.167 39.167 -78.5 51.5s-63.833 18.5 -100.5 18.5c-36 0 -69.167 -6.16699 -99.5 -18.5s-56.5 -29.5 -78.5 -51.5s-39.167 -48 -51.5 -78s-18.5 -62.667 -18.5 -98s6.16699 -68 18.5 -98s29.5 -56 51.5 -78
s48.167 -39.167 78.5 -51.5s63.5 -18.5 99.5 -18.5c36.667 0 70.167 6.16699 100.5 18.5s56.5 29.5 78.5 51.5s39.167 48 51.5 78s18.5 62.667 18.5 98zM473 234c0 -26 -4.16699 -50.333 -12.5 -73s-20.166 -42.334 -35.499 -59.001s-33.833 -29.834 -55.5 -39.501
s-46.167 -14.5 -73.5 -14.5c-26.667 0 -51 4.83301 -73 14.5s-40.5 22.834 -55.5 39.501s-26.667 36.334 -35 59.001s-12.5 47 -12.5 73s4.16699 50.333 12.5 73s20 42.334 35 59.001s33.5 29.834 55.5 39.501s46.333 14.5 73 14.5c27.333 0 51.833 -4.83301 73.5 -14.5
s40.167 -22.834 55.5 -39.501s27.166 -36.334 35.499 -59.001s12.5 -47 12.5 -73zM427 708h-91l-100 -144h59z" />
    <glyph glyph-name="edieresis" unicode="&#x2018;" 
d="M508 216l-0.00195312 30c0 32 -5 62.167 -15 90.5s-24.5 53 -43.5 74s-42.5 37.833 -70.5 50.5s-59.667 19 -95 19c-33.333 0 -64.333 -6.16699 -93 -18.5s-53.667 -29.5 -75 -51.5s-38 -48 -50 -78s-18 -62.667 -18 -98s6.16699 -68 18.5 -98s29.166 -56 50.499 -78
s46.833 -39.167 76.5 -51.5s61.834 -18.5 96.501 -18.5c38.667 0 74.834 7.66699 108.501 23s64.5 40.666 92.5 75.999l-51 42c-13.333 -21.333 -32.833 -40.166 -58.5 -56.499s-56.167 -24.5 -91.5 -24.5c-23.333 0 -45 4.33301 -65 13s-37.667 20.5 -53 35.5
s-27.666 32.833 -36.999 53.5s-15 42.667 -17 66h390zM119.998 270c0 19.333 4.5 38.001 13.5 56.001s21 34 36 48s32.5 25.167 52.5 33.5s40.667 12.5 62 12.5c48 0 85.333 -13.833 112 -41.5s40 -63.834 40 -108.501h-316zM130.998 647.001
c0 -13.333 4.66699 -25.166 14 -35.499s21.666 -15.5 36.999 -15.5s27.666 5.16699 36.999 15.5s14 22.166 14 35.499s-4.66699 25.166 -14 35.499s-21.666 15.5 -36.999 15.5s-27.666 -5.16699 -36.999 -15.5s-14 -22.166 -14 -35.499zM322.998 647.001
c0 -13.333 4.66699 -25.166 14 -35.499s21.666 -15.5 36.999 -15.5s27.666 5.16699 36.999 15.5s14 22.166 14 35.499s-4.66699 25.166 -14 35.499s-21.666 15.5 -36.999 15.5s-27.666 -5.16699 -36.999 -15.5s-14 -22.166 -14 -35.499z" />
    <glyph glyph-name="iacute" unicode="&#x2019;" horiz-adv-x="240" 
d="M153 468h-66v-468h66v468zM250 708h-91l-100 -144h59z" />
    <glyph glyph-name="Ccedilla" unicode="&#x201a;" horiz-adv-x="704" 
d="M620 154c-26.667 -40.667 -57.8301 -68.498 -93.4971 -83.498s-72.167 -22.5 -109.5 -22.5c-45.333 0 -86 8.33301 -122 25s-66.5 39 -91.5 67s-44.167 60.5 -57.5 97.5s-20 75.833 -20 116.5s6.66699 79.5 20 116.5s32.5 69.5 57.5 97.5s55.5 50.333 91.5 67
s76.667 25 122 25c18.667 0 37.334 -2.66699 56.001 -8s36.167 -12.333 52.5 -21s31 -18.667 44 -30s22.833 -22.666 29.5 -33.999l63 47c-31.333 40 -69 68.667 -113 86s-88 26 -132 26c-52.667 0 -101.5 -9.33301 -146.5 -28s-84 -44.5 -117 -77.5
s-58.833 -72.167 -77.5 -117.5s-28 -95 -28 -149c0 -48.667 7.66699 -93.834 23 -135.501s36.666 -78.5 63.999 -110.5s59.833 -58.5 97.5 -79.5s79.167 -34.833 124.5 -41.5l-52 -71l18 -17c6.66699 3.33301 13.667 6 21 8s15.666 3 24.999 3c10 0 18.333 -1.5 25 -4.5
s11.667 -6.66699 15 -11s5.66602 -8.83301 6.99902 -13.5s2 -8.33398 2 -11.001c0 -16.667 -6.66699 -28.334 -20 -35.001s-27.333 -10 -42 -10c-26 0 -50.667 6 -74 18l-16 -36c30 -16 62.333 -24 97 -24c13.333 0 26.833 1.66699 40.5 5s26 8.5 37 15.5s20 16.167 27 27.5
s10.5 24.666 10.5 39.999c0 24 -7.83301 42.5 -23.5 55.5s-33.5 19.5 -53.5 19.5c-7.33301 0 -13.833 -0.666992 -19.5 -2s-11.167 -3 -16.5 -5l-2 1l33 44c3.33301 -1.33301 6.66602 -2 9.99902 -2h11c29.333 0 57.333 3.33301 84 10s51.167 15.834 73.5 27.501
s42.333 25.5 60 41.5s32.5 33 44.5 51z" />
    <glyph glyph-name="igrave" unicode="&#x201c;" horiz-adv-x="240" 
d="M153 468h-66v-468h66v468zM122 564h59l-100 144h-91z" />
    <glyph glyph-name="icircumflex" unicode="&#x201d;" horiz-adv-x="240" 
d="M153 468h-66v-468h66v468zM160 708h-80l-109 -144h66l83 108l83 -108h66z" />
    <glyph glyph-name="Ntilde" unicode="&#x201e;" horiz-adv-x="778" 
d="M186 708h-90v-708h72v606h2l422 -606h90v708h-72v-600h-2zM270 751c3.33301 12.667 8.50391 24.1641 15.5039 34.4971s18.167 15.5 33.5 15.5c10.667 0 21.667 -2.33301 33 -7s22.666 -10 33.999 -16l36.5 -15.5c12.333 -5 24.5 -7.5 36.5 -7.5
c15.333 0 28.166 3 38.499 9s19.166 13.833 26.499 23.5s13.166 20.834 17.499 33.501s7.5 25.334 9.5 38.001h-43c-3.33301 -12.667 -8.5 -24.167 -15.5 -34.5s-18.167 -15.5 -33.5 -15.5c-10 0 -20.667 2.5 -32 7.5l-35 15.5c-12 6 -24.167 11.333 -36.5 16
s-24.5 7 -36.5 7c-14.667 0 -27.334 -3 -38.001 -9s-19.667 -13.833 -27 -23.5s-13.166 -20.667 -17.499 -33s-7.5 -25.166 -9.5 -38.499h43z" />
    <glyph glyph-name="Udieresis" unicode="&#x2020;" horiz-adv-x="686" 
d="M602 708h-72.001v-436c0 -50.667 -7.16699 -91 -21.5 -121s-31.5 -52.5 -51.5 -67.5s-40.667 -24.667 -62 -29s-38.666 -6.5 -51.999 -6.5s-30.666 2.16699 -51.999 6.5s-42 14 -62 29s-37.167 37.5 -51.5 67.5s-21.5 70.333 -21.5 121v436h-72v-444
c0 -29.333 3.5 -60.5 10.5 -93.5s20.167 -63.5 39.5 -91.5s45.833 -51.167 79.5 -69.5s76.834 -27.5 129.501 -27.5c53.333 0 96.666 9.16699 129.999 27.5s59.666 41.5 78.999 69.5s32.5 58.5 39.5 91.5s10.5 64.167 10.5 93.5v444zM195.999 822
c0 -13.333 4.66699 -25.166 14 -35.499s21.666 -15.5 36.999 -15.5s27.666 5.16699 36.999 15.5s14 22.166 14 35.499s-4.66699 25.166 -14 35.499s-21.666 15.5 -36.999 15.5s-27.666 -5.16699 -36.999 -15.5s-14 -22.166 -14 -35.499zM387.999 822
c0 -13.333 4.66699 -25.166 14 -35.499s21.666 -15.5 36.999 -15.5s27.666 5.16699 36.999 15.5s14 22.166 14 35.499s-4.66699 25.166 -14 35.499s-21.666 15.5 -36.999 15.5s-27.666 -5.16699 -36.999 -15.5s-14 -22.166 -14 -35.499z" />
    <glyph glyph-name="aacute" unicode="&#x2021;" horiz-adv-x="519" 
d="M339 287c-28 0 -58.832 -1.33496 -92.499 -4.00195s-65.334 -9.33398 -95.001 -20.001s-54.334 -26.834 -74.001 -48.501s-29.5 -51.5 -29.5 -89.5c0 -22.667 4.5 -42.5 13.5 -59.5s21 -31.333 36 -43s32.167 -20.334 51.5 -26.001s39.333 -8.5 60 -8.5
c38 0 70.167 6.83301 96.5 20.5s49.166 36.167 68.499 67.5h2c0 -12.667 0.5 -25.667 1.5 -39s2.5 -25.666 4.5 -36.999h64c-2 12.667 -3.83301 28.834 -5.5 48.501s-2.5 38.5 -2.5 56.5v209c0 28.667 -4.66699 53.334 -14 74.001s-21.666 37.834 -36.999 51.501
s-33.333 23.834 -54 30.501s-42.667 10 -66 10c-88 0 -154 -22.667 -198 -68l40 -47c40.667 36.667 88.334 55 143.001 55c80 0 120 -40.333 120 -121v-12h-33zM372.001 232.998v-33.999c0 -20.667 -2.83301 -40.167 -8.5 -58.5s-14.5 -34.333 -26.5 -48
s-26.833 -24.5 -44.5 -32.5s-38.5 -12 -62.5 -12c-13.333 0 -26.5 1.5 -39.5 4.5s-24.833 8 -35.5 15s-19.167 16 -25.5 27s-9.5 24.167 -9.5 39.5c0 16 3.83301 29.333 11.5 40s17.667 19.667 30 27s26.333 13.166 42 17.499s31.667 7.5 48 9.5s32 3.33301 47 4
s28.167 1 39.5 1h34zM390.001 707.999h-91l-100 -144h59z" />
    <glyph glyph-name="idieresis" unicode="&#x2022;" horiz-adv-x="240" 
d="M153 468h-66v-468h66v468zM-27 647c0 -13.333 4.66699 -25.166 14 -35.499s21.666 -15.5 36.999 -15.5s27.666 5.16699 36.999 15.5s14 22.166 14 35.499s-4.66699 25.166 -14 35.499s-21.666 15.5 -36.999 15.5s-27.666 -5.16699 -36.999 -15.5s-14 -22.166 -14 -35.499
zM165 647c0 -13.333 4.66699 -25.166 14 -35.499s21.666 -15.5 36.999 -15.5s27.666 5.16699 36.999 15.5s14 22.166 14 35.499s-4.66699 25.166 -14 35.499s-21.666 15.5 -36.999 15.5s-27.666 -5.16699 -36.999 -15.5s-14 -22.166 -14 -35.499z" />
    <glyph glyph-name="Odieresis" unicode="&#x2026;" horiz-adv-x="834" 
d="M786 354c0 54 -9.33301 103.667 -28 149s-44.5 84.5 -77.5 117.5s-72 58.833 -117 77.5s-93.833 28 -146.5 28s-101.5 -9.33301 -146.5 -28s-84 -44.5 -117 -77.5s-58.833 -72.167 -77.5 -117.5s-28 -95 -28 -149s9.33301 -103.667 28 -149s44.5 -84.5 77.5 -117.5
s72 -58.833 117 -77.5s93.833 -28 146.5 -28s101.5 9.33301 146.5 28s84 44.5 117 77.5s58.833 72.167 77.5 117.5s28 95 28 149zM708 354c0 -40.667 -6.66699 -79.5 -20 -116.5s-32.5 -69.5 -57.5 -97.5s-55.5 -50.333 -91.5 -67s-76.667 -25 -122 -25s-86 8.33301 -122 25
s-66.5 39 -91.5 67s-44.167 60.5 -57.5 97.5s-20 75.833 -20 116.5s6.66699 79.5 20 116.5s32.5 69.5 57.5 97.5s55.5 50.333 91.5 67s76.667 25 122 25s86 -8.33301 122 -25s66.5 -39 91.5 -67s44.167 -60.5 57.5 -97.5s20 -75.833 20 -116.5zM270 822
c0 -13.333 4.66699 -25.166 14 -35.499s21.666 -15.5 36.999 -15.5s27.666 5.16699 36.999 15.5s14 22.166 14 35.499s-4.66699 25.166 -14 35.499s-21.666 15.5 -36.999 15.5s-27.666 -5.16699 -36.999 -15.5s-14 -22.166 -14 -35.499zM462 822
c0 -13.333 4.66699 -25.166 14 -35.499s21.666 -15.5 36.999 -15.5s27.666 5.16699 36.999 15.5s14 22.166 14 35.499s-4.66699 25.166 -14 35.499s-21.666 15.5 -36.999 15.5s-27.666 -5.16699 -36.999 -15.5s-14 -22.166 -14 -35.499z" />
    <glyph glyph-name="acircumflex" unicode="&#x2030;" horiz-adv-x="519" 
d="M339 287c-28 0 -58.832 -1.33496 -92.499 -4.00195s-65.334 -9.33398 -95.001 -20.001s-54.334 -26.834 -74.001 -48.501s-29.5 -51.5 -29.5 -89.5c0 -22.667 4.5 -42.5 13.5 -59.5s21 -31.333 36 -43s32.167 -20.334 51.5 -26.001s39.333 -8.5 60 -8.5
c38 0 70.167 6.83301 96.5 20.5s49.166 36.167 68.499 67.5h2c0 -12.667 0.5 -25.667 1.5 -39s2.5 -25.666 4.5 -36.999h64c-2 12.667 -3.83301 28.834 -5.5 48.501s-2.5 38.5 -2.5 56.5v209c0 28.667 -4.66699 53.334 -14 74.001s-21.666 37.834 -36.999 51.501
s-33.333 23.834 -54 30.501s-42.667 10 -66 10c-88 0 -154 -22.667 -198 -68l40 -47c40.667 36.667 88.334 55 143.001 55c80 0 120 -40.333 120 -121v-12h-33zM372.001 232.998v-33.999c0 -20.667 -2.83301 -40.167 -8.5 -58.5s-14.5 -34.333 -26.5 -48
s-26.833 -24.5 -44.5 -32.5s-38.5 -12 -62.5 -12c-13.333 0 -26.5 1.5 -39.5 4.5s-24.833 8 -35.5 15s-19.167 16 -25.5 27s-9.5 24.167 -9.5 39.5c0 16 3.83301 29.333 11.5 40s17.667 19.667 30 27s26.333 13.166 42 17.499s31.667 7.5 48 9.5s32 3.33301 47 4
s28.167 1 39.5 1h34zM300.001 707.999h-80l-109 -144h66l83 108l83 -108h66z" />
    <glyph glyph-name="atilde" unicode="&#x2039;" horiz-adv-x="519" 
d="M339 287c-28 0 -58.832 -1.33496 -92.499 -4.00195s-65.334 -9.33398 -95.001 -20.001s-54.334 -26.834 -74.001 -48.501s-29.5 -51.5 -29.5 -89.5c0 -22.667 4.5 -42.5 13.5 -59.5s21 -31.333 36 -43s32.167 -20.334 51.5 -26.001s39.333 -8.5 60 -8.5
c38 0 70.167 6.83301 96.5 20.5s49.166 36.167 68.499 67.5h2c0 -12.667 0.5 -25.667 1.5 -39s2.5 -25.666 4.5 -36.999h64c-2 12.667 -3.83301 28.834 -5.5 48.501s-2.5 38.5 -2.5 56.5v209c0 28.667 -4.66699 53.334 -14 74.001s-21.666 37.834 -36.999 51.501
s-33.333 23.834 -54 30.501s-42.667 10 -66 10c-88 0 -154 -22.667 -198 -68l40 -47c40.667 36.667 88.334 55 143.001 55c80 0 120 -40.333 120 -121v-12h-33zM372.001 232.998v-33.999c0 -20.667 -2.83301 -40.167 -8.5 -58.5s-14.5 -34.333 -26.5 -48
s-26.833 -24.5 -44.5 -32.5s-38.5 -12 -62.5 -12c-13.333 0 -26.5 1.5 -39.5 4.5s-24.833 8 -35.5 15s-19.167 16 -25.5 27s-9.5 24.167 -9.5 39.5c0 16 3.83301 29.333 11.5 40s17.667 19.667 30 27s26.333 13.166 42 17.499s31.667 7.5 48 9.5s32 3.33301 47 4
s28.167 1 39.5 1h34zM141.001 575.999c3.33301 12.667 8.50391 24.1641 15.5039 34.4971s18.167 15.5 33.5 15.5c10.667 0 21.667 -2.33301 33 -7s22.666 -10 33.999 -16l36.5 -15.5c12.333 -5 24.5 -7.5 36.5 -7.5c15.333 0 28.166 3 38.499 9s19.166 13.833 26.499 23.5
s13.166 20.834 17.499 33.501s7.5 25.334 9.5 38.001h-43c-3.33301 -12.667 -8.5 -24.167 -15.5 -34.5s-18.167 -15.5 -33.5 -15.5c-10 0 -20.667 2.5 -32 7.5l-35 15.5c-12 6 -24.167 11.333 -36.5 16s-24.5 7 -36.5 7c-14.667 0 -27.334 -3 -38.001 -9
s-19.667 -13.833 -27 -23.5s-13.166 -20.667 -17.499 -33s-7.5 -25.166 -9.5 -38.499h43z" />
    <glyph glyph-name="otilde" unicode="&#x203a;" horiz-adv-x="593" 
d="M545 234c0 35.333 -6.16699 68 -18.5 98s-29.5 56 -51.5 78s-48.167 39.167 -78.5 51.5s-63.833 18.5 -100.5 18.5c-36 0 -69.167 -6.16699 -99.5 -18.5s-56.5 -29.5 -78.5 -51.5s-39.167 -48 -51.5 -78s-18.5 -62.667 -18.5 -98s6.16699 -68 18.5 -98s29.5 -56 51.5 -78
s48.167 -39.167 78.5 -51.5s63.5 -18.5 99.5 -18.5c36.667 0 70.167 6.16699 100.5 18.5s56.5 29.5 78.5 51.5s39.167 48 51.5 78s18.5 62.667 18.5 98zM473 234c0 -26 -4.16699 -50.333 -12.5 -73s-20.166 -42.334 -35.499 -59.001s-33.833 -29.834 -55.5 -39.501
s-46.167 -14.5 -73.5 -14.5c-26.667 0 -51 4.83301 -73 14.5s-40.5 22.834 -55.5 39.501s-26.667 36.334 -35 59.001s-12.5 47 -12.5 73s4.16699 50.333 12.5 73s20 42.334 35 59.001s33.5 29.834 55.5 39.501s46.333 14.5 73 14.5c27.333 0 51.833 -4.83301 73.5 -14.5
s40.167 -22.834 55.5 -39.501s27.166 -36.334 35.499 -59.001s12.5 -47 12.5 -73zM178 576c3.33301 12.667 8.50391 24.1641 15.5039 34.4971s18.167 15.5 33.5 15.5c10.667 0 21.667 -2.33301 33 -7s22.666 -10 33.999 -16l36.5 -15.5c12.333 -5 24.5 -7.5 36.5 -7.5
c15.333 0 28.166 3 38.499 9s19.166 13.833 26.499 23.5s13.166 20.834 17.499 33.501s7.5 25.334 9.5 38.001h-43c-3.33301 -12.667 -8.5 -24.167 -15.5 -34.5s-18.167 -15.5 -33.5 -15.5c-10 0 -20.667 2.5 -32 7.5l-35 15.5c-12 6 -24.167 11.333 -36.5 16
s-24.5 7 -36.5 7c-14.667 0 -27.334 -3 -38.001 -9s-19.667 -13.833 -27 -23.5s-13.166 -20.667 -17.499 -33s-7.5 -25.166 -9.5 -38.499h43z" />
    <glyph glyph-name="ocircumflex" unicode="&#x2122;" horiz-adv-x="593" 
d="M545 234c0 35.333 -6.16699 68 -18.5 98s-29.5 56 -51.5 78s-48.167 39.167 -78.5 51.5s-63.833 18.5 -100.5 18.5c-36 0 -69.167 -6.16699 -99.5 -18.5s-56.5 -29.5 -78.5 -51.5s-39.167 -48 -51.5 -78s-18.5 -62.667 -18.5 -98s6.16699 -68 18.5 -98s29.5 -56 51.5 -78
s48.167 -39.167 78.5 -51.5s63.5 -18.5 99.5 -18.5c36.667 0 70.167 6.16699 100.5 18.5s56.5 29.5 78.5 51.5s39.167 48 51.5 78s18.5 62.667 18.5 98zM473 234c0 -26 -4.16699 -50.333 -12.5 -73s-20.166 -42.334 -35.499 -59.001s-33.833 -29.834 -55.5 -39.501
s-46.167 -14.5 -73.5 -14.5c-26.667 0 -51 4.83301 -73 14.5s-40.5 22.834 -55.5 39.501s-26.667 36.334 -35 59.001s-12.5 47 -12.5 73s4.16699 50.333 12.5 73s20 42.334 35 59.001s33.5 29.834 55.5 39.501s46.333 14.5 73 14.5c27.333 0 51.833 -4.83301 73.5 -14.5
s40.167 -22.834 55.5 -39.501s27.166 -36.334 35.499 -59.001s12.5 -47 12.5 -73zM337 708h-80l-109 -144h66l83 108l83 -108h66z" />
    <glyph glyph-name=".null" horiz-adv-x="0" 
 />
    <glyph glyph-name="nonmarkingreturn" horiz-adv-x="500" 
 />
  </font>
</defs>
</svg>
